Junicode-Italic.ufo
<glyph name="dieresis" format="1">
  <advance width="909"/>
  <unicode hex="00A8"/>
  <outline>
    <contour>
      <point x="601" y="1135" type="qcurve" smooth="yes"/>
      <point x="601" y="1077"/>
      <point x="534" y="1010"/>
      <point x="489" y="1010" type="qcurve" smooth="yes"/>
      <point x="402" y="1010"/>
      <point x="402" y="1100" type="qcurve" smooth="yes"/>
      <point x="402" y="1152"/>
      <point x="472" y="1225"/>
      <point x="516" y="1225" type="qcurve" smooth="yes"/>
      <point x="601" y="1224"/>
    </contour>
    <contour>
      <point x="958" y="1135" type="qcurve" smooth="yes"/>
      <point x="958" y="1077"/>
      <point x="891" y="1010"/>
      <point x="846" y="1010" type="qcurve" smooth="yes"/>
      <point x="759" y="1010"/>
      <point x="759" y="1100" type="qcurve" smooth="yes"/>
      <point x="759" y="1152"/>
      <point x="829" y="1225"/>
      <point x="873" y="1225" type="qcurve" smooth="yes"/>
      <point x="958" y="1224"/>
    </contour>
  </outline>
</glyph>
<glyph name="amacron" format="1">
  <advance width="918"/>
  <unicode hex="0101"/>
  <outline>
    <contour>
      <point x="692" y="1265" type="move" name="above"/>
    </contour>
    <component base="a"/>
    <component base="macron" xOffset="162"/>
  </outline>
</glyph>
<glyph name="abreve" format="1">
  <advance width="918"/>
  <unicode hex="0103"/>
  <outline>
    <contour>
      <point x="668" y="1265" type="move" name="above"/>
    </contour>
    <component base="a"/>
    <component base="breve" xOffset="50"/>
  </outline>
</glyph>
<glyph name="emacron" format="1">
  <advance width="696"/>
  <unicode hex="0113"/>
  <outline>
    <contour>
      <point x="655" y="1265" type="move" name="above"/>
    </contour>
    <component base="e"/>
    <component base="macron" xOffset="42"/>
  </outline>
</glyph>
<glyph name="ebreve" format="1">
  <advance width="696"/>
  <unicode hex="0115"/>
  <outline>
    <contour>
      <point x="668" y="1265" type="move" name="above"/>
    </contour>
    <component base="e"/>
    <component base="breve" xOffset="48"/>
  </outline>
</glyph>
<glyph name="imacron" format="1">
  <advance width="528"/>
  <unicode hex="012B"/>
  <outline>
    <contour>
      <point x="402" y="1265" type="move" name="above"/>
    </contour>
    <component base="dotlessi"/>
    <component base="macron" xOffset="-139"/>
  </outline>
</glyph>
<glyph name="ibreve" format="1">
  <advance width="528"/>
  <unicode hex="012D"/>
  <outline>
    <contour>
      <point x="440" y="1265" type="move" name="above"/>
    </contour>
    <component base="dotlessi"/>
    <component base="breve" xOffset="-189"/>
  </outline>
</glyph>
<glyph name="omacron" format="1">
  <advance width="838"/>
  <unicode hex="014D"/>
  <outline>
    <contour>
      <point x="658" y="1265" type="move" name="above"/>
    </contour>
    <component base="o"/>
    <component base="macron" xOffset="110"/>
  </outline>
</glyph>
<glyph name="obreve" format="1">
  <advance width="838"/>
  <unicode hex="014F"/>
  <outline>
    <contour>
      <point x="702" y="1265" type="move" name="above"/>
    </contour>
    <component base="o"/>
    <component base="breve" xOffset="78"/>
  </outline>
</glyph>
<glyph name="umacron" format="1">
  <advance width="991"/>
  <unicode hex="016B"/>
  <outline>
    <contour>
      <point x="680" y="1265" type="move" name="above"/>
    </contour>
    <component base="u"/>
    <component base="macron" xOffset="130"/>
  </outline>
</glyph>
<glyph name="ubreve" format="1">
  <advance width="991"/>
  <unicode hex="016D"/>
  <outline>
    <contour>
      <point x="716" y="1265" type="move" name="above"/>
    </contour>
    <component base="u"/>
    <component base="breve" xOffset="90"/>
  </outline>
</glyph>
<glyph name="uni021C" format="1">
  <advance width="980"/>
  <unicode hex="021C"/>
  <outline>
    <contour>
      <point x="907" y="529" type="qcurve"/>
      <point x="907" y="398"/>
      <point x="800" y="246.5" type="qcurve"/>
      <point x="693" y="95"/>
      <point x="491" y="19" type="qcurve"/>
      <point x="289" y="-57"/>
      <point x="56" y="-57" type="qcurve"/>
      <point x="47" y="-57"/>
      <point x="47" y="-39" type="qcurve"/>
      <point x="47" y="-21"/>
      <point x="52" y="-7" type="qcurve"/>
      <point x="57" y="7"/>
      <point x="69" y="7" type="qcurve"/>
      <point x="308" y="7"/>
      <point x="513.5" y="146.5" type="qcurve"/>
      <point x="719" y="286"/>
      <point x="719" y="508" type="qcurve"/>
      <point x="719" y="672"/>
      <point x="559" y="672" type="qcurve"/>
      <point x="488" y="672"/>
      <point x="361" y="600" type="qcurve"/>
      <point x="338" y="594"/>
      <point x="338" y="618" type="qcurve"/>
      <point x="338" y="634"/>
      <point x="350" y="640" type="qcurve"/>
      <point x="537" y="743"/>
      <point x="617" y="811" type="qcurve"/>
      <point x="697" y="879"/>
      <point x="734.5" y="965.5" type="qcurve"/>
      <point x="772" y="1052"/>
      <point x="772" y="1131" type="qcurve"/>
      <point x="772" y="1282"/>
      <point x="591" y="1282" type="qcurve"/>
      <point x="476" y="1282"/>
      <point x="395" y="1200.5" type="qcurve"/>
      <point x="314" y="1119"/>
      <point x="284" y="970" type="qcurve"/>
      <point x="281" y="955"/>
      <point x="245" y="955" type="qcurve"/>
      <point x="209" y="955"/>
      <point x="209" y="968" type="qcurve"/>
      <point x="209" y="970" type="line"/>
      <point x="285" y="1362" type="line"/>
      <point x="288" y="1376"/>
      <point x="324" y="1376" type="qcurve"/>
      <point x="360" y="1376"/>
      <point x="360" y="1364" type="qcurve"/>
      <point x="357" y="1337"/>
      <point x="357" y="1329" type="qcurve"/>
      <point x="357" y="1291"/>
      <point x="404" y="1291" type="qcurve"/>
      <point x="419" y="1291"/>
      <point x="514.5" y="1338.5" type="qcurve"/>
      <point x="610" y="1386"/>
      <point x="696" y="1386" type="qcurve"/>
      <point x="814" y="1386"/>
      <point x="885.5" y="1331.5" type="qcurve"/>
      <point x="957" y="1277"/>
      <point x="957" y="1190" type="qcurve"/>
      <point x="957" y="1107"/>
      <point x="897.5" y="1007" type="qcurve"/>
      <point x="838" y="907"/>
      <point x="755" y="831" type="qcurve"/>
      <point x="733" y="811"/>
      <point x="733" y="798.5" type="qcurve"/>
      <point x="733" y="786"/>
      <point x="744" y="780" type="qcurve"/>
      <point x="907" y="681"/>
    </contour>
  </outline>
</glyph>
<glyph name="uni0233" format="1">
  <advance width="793"/>
  <unicode hex="0233"/>
  <outline>
    <contour>
      <point x="564" y="1265" type="move" name="above"/>
    </contour>
    <component base="y"/>
    <component base="macron" xOffset="19"/>
  </outline>
</glyph>
<glyph name="uni0248" format="1">
  <advance width="720"/>
  <unicode hex="0248"/>
  <outline>
    <contour>
      <point x="409" y="160" type="line"/>
      <point x="323" y="-129"/>
      <point x="162.5" y="-274" type="qcurve"/>
      <point x="2" y="-419"/>
      <point x="-160" y="-419" type="qcurve"/>
      <point x="-191" y="-419"/>
      <point x="-228" y="-397.5" type="qcurve"/>
      <point x="-265" y="-376"/>
      <point x="-265" y="-330.5" type="qcurve"/>
      <point x="-265" y="-285"/>
      <point x="-228" y="-250.5" type="qcurve"/>
      <point x="-191" y="-216"/>
      <point x="-123" y="-216" type="qcurve"/>
      <point x="-69" y="-216"/>
      <point x="-36.5" y="-250" type="qcurve"/>
      <point x="-4" y="-284"/>
      <point x="-4" y="-317" type="qcurve"/>
      <point x="76" y="-292"/>
      <point x="204.922" y="-87.124"/>
      <point x="416.683" y="657.5" type="qcurve"/>
      <point x="200" y="657.5" type="line"/>
      <point x="194" y="657.5"/>
      <point x="194" y="676.5" type="qcurve"/>
      <point x="194" y="695.5"/>
      <point x="208" y="734" type="qcurve"/>
      <point x="222" y="772.5"/>
      <point x="233" y="772.5" type="qcurve"/>
      <point x="449.388" y="772.5" type="line"/>
      <point x="563" y="1172" type="line"/>
      <point x="568" y="1190"/>
      <point x="568" y="1201" type="qcurve"/>
      <point x="568" y="1287"/>
      <point x="407" y="1287" type="qcurve"/>
      <point x="399" y="1287"/>
      <point x="399" y="1308.5" type="qcurve"/>
      <point x="399" y="1330"/>
      <point x="410" y="1346.5" type="qcurve"/>
      <point x="421" y="1363"/>
      <point x="428" y="1363" type="qcurve"/>
      <point x="475" y="1358"/>
      <point x="669.5" y="1358" type="qcurve"/>
      <point x="864" y="1358"/>
      <point x="936" y="1363" type="qcurve"/>
      <point x="944" y="1363"/>
      <point x="944" y="1342.5" type="qcurve"/>
      <point x="944" y="1322"/>
      <point x="933" y="1304.5" type="qcurve"/>
      <point x="922" y="1287"/>
      <point x="915" y="1287" type="qcurve"/>
      <point x="817" y="1287"/>
      <point x="772.5" y="1260.5" type="qcurve"/>
      <point x="728" y="1234"/>
      <point x="709" y="1172" type="qcurve"/>
      <point x="590.571" y="772.5" type="line"/>
      <point x="806" y="772.5" type="line"/>
      <point x="812" y="772.5"/>
      <point x="812" y="751" type="qcurve"/>
      <point x="812" y="729.5"/>
      <point x="797" y="693.5" type="qcurve"/>
      <point x="782" y="657.5"/>
      <point x="773" y="657.5" type="qcurve"/>
      <point x="556.48" y="657.5" type="line"/>
    </contour>
  </outline>
</glyph>
<glyph name="uni0249" format="1">
  <advance width="420"/>
  <unicode hex="0249"/>
  <outline>
    <contour>
      <point x="540" y="1135" type="qcurve"/>
      <point x="540" y="1077"/>
      <point x="506.5" y="1043.5" type="qcurve"/>
      <point x="473" y="1010"/>
      <point x="428" y="1010" type="qcurve"/>
      <point x="341" y="1010"/>
      <point x="341" y="1100" type="qcurve"/>
      <point x="341" y="1152"/>
      <point x="376" y="1188.5" type="qcurve"/>
      <point x="411" y="1225"/>
      <point x="455" y="1225" type="qcurve"/>
      <point x="540" y="1224"/>
    </contour>
    <contour>
      <point x="285" y="139" type="line"/>
      <point x="259" y="27"/>
      <point x="207" y="-143.5" type="qcurve"/>
      <point x="155" y="-314"/>
      <point x="45.5" y="-433.5" type="qcurve"/>
      <point x="-64" y="-553"/>
      <point x="-231" y="-553" type="qcurve"/>
      <point x="-263" y="-553"/>
      <point x="-284" y="-527.5" type="qcurve"/>
      <point x="-305" y="-502"/>
      <point x="-305" y="-477" type="qcurve"/>
      <point x="-305" y="-448"/>
      <point x="-278.5" y="-433" type="qcurve"/>
      <point x="-252" y="-418"/>
      <point x="-223" y="-418" type="qcurve"/>
      <point x="-192" y="-418"/>
      <point x="-164" y="-442.5" type="qcurve"/>
      <point x="-136" y="-467"/>
      <point x="-113" y="-467" type="qcurve"/>
      <point x="-44" y="-467"/>
      <point x="5.5" y="-401" type="qcurve"/>
      <point x="55" y="-335"/>
      <point x="72" y="-260" type="qcurve"/>
      <point x="215" y="366" type="line"/>
      <point x="62" y="366" type="line"/>
      <point x="56" y="366"/>
      <point x="56" y="384" type="qcurve"/>
      <point x="56" y="404"/>
      <point x="70" y="442" type="qcurve"/>
      <point x="84" y="480"/>
      <point x="95" y="480" type="qcurve"/>
      <point x="241" y="480" type="line"/>
      <point x="274" y="623" type="line"/>
      <point x="279" y="645"/>
      <point x="279" y="659" type="qcurve"/>
      <point x="279" y="702"/>
      <point x="247.5" y="702" type="qcurve"/>
      <point x="216" y="702"/>
      <point x="143" y="610" type="qcurve"/>
      <point x="131" y="596"/>
      <point x="107" y="630" type="qcurve"/>
      <point x="102" y="637"/>
      <point x="103" y="643" type="qcurve"/>
      <point x="103" y="646"/>
      <point x="104" y="649" type="qcurve"/>
      <point x="256" y="852"/>
      <point x="358" y="852" type="qcurve"/>
      <point x="419" y="852"/>
      <point x="419" y="755" type="qcurve"/>
      <point x="419" y="725"/>
      <point x="412" y="694" type="qcurve"/>
      <point x="363" y="480" type="line"/>
      <point x="518" y="480" type="line"/>
      <point x="524" y="480"/>
      <point x="524" y="459" type="qcurve"/>
      <point x="524" y="438"/>
      <point x="509" y="402" type="qcurve"/>
      <point x="494" y="366"/>
      <point x="485" y="366" type="qcurve"/>
      <point x="337" y="366" type="line"/>
    </contour>
  </outline>
</glyph>
<glyph name="uni0258" format="1">
  <advance width="824"/>
  <unicode hex="0258"/>
  <outline>
    <contour>
      <point x="489" y="811" type="qcurve"/>
      <point x="421" y="811"/>
      <point x="353.5" y="743.5" type="qcurve"/>
      <point x="286" y="676"/>
      <point x="286" y="627" type="qcurve"/>
      <point x="286" y="616"/>
      <point x="298" y="616" type="qcurve"/>
      <point x="619" y="616" type="line"/>
      <point x="648" y="616"/>
      <point x="648" y="635" type="qcurve"/>
      <point x="648" y="637"/>
      <point x="646" y="645" type="qcurve"/>
      <point x="616" y="811"/>
    </contour>
    <contour>
      <point x="132" y="587" type="qcurve"/>
      <point x="132" y="660"/>
      <point x="246" y="765" type="qcurve"/>
      <point x="360" y="870"/>
      <point x="478" y="870" type="qcurve"/>
      <point x="607" y="870"/>
      <point x="685.5" y="768.5" type="qcurve"/>
      <point x="764" y="667"/>
      <point x="764" y="527" type="qcurve"/>
      <point x="764" y="482"/>
      <point x="732" y="355" type="qcurve"/>
      <point x="700" y="228"/>
      <point x="585" y="102.5" type="qcurve"/>
      <point x="470" y="-23"/>
      <point x="323" y="-23" type="qcurve"/>
      <point x="176" y="-23"/>
      <point x="45" y="117" type="qcurve"/>
      <point x="43" y="119"/>
      <point x="43" y="124" type="qcurve"/>
      <point x="43" y="127" type="line"/>
      <point x="43" y="158"/>
      <point x="78" y="158" type="qcurve"/>
      <point x="81" y="158"/>
      <point x="88" y="154" type="qcurve"/>
      <point x="222" y="76"/>
      <point x="288" y="76" type="qcurve"/>
      <point x="424" y="76"/>
      <point x="510.5" y="205.5" type="qcurve"/>
      <point x="597" y="335"/>
      <point x="621.5" y="411" type="qcurve"/>
      <point x="646" y="487"/>
      <point x="646" y="518" type="qcurve"/>
      <point x="646" y="549"/>
      <point x="613" y="549" type="qcurve"/>
      <point x="174" y="549" type="line"/>
      <point x="132" y="549"/>
    </contour>
  </outline>
</glyph>
<glyph name="uni0262" format="1">
  <advance width="1036"/>
  <unicode hex="0262"/>
  <outline>
    <contour>
      <point x="968" y="391" type="qcurve"/>
      <point x="978" y="391"/>
      <point x="978" y="359.5" type="qcurve"/>
      <point x="978" y="328"/>
      <point x="956" y="328" type="qcurve"/>
      <point x="902" y="328"/>
      <point x="889.5" y="314.5" type="qcurve"/>
      <point x="877" y="301"/>
      <point x="872" y="274" type="qcurve"/>
      <point x="840" y="111" type="line"/>
      <point x="839" y="92" type="line"/>
      <point x="842" y="78"/>
      <point x="863" y="78" type="qcurve"/>
      <point x="873" y="78"/>
      <point x="873" y="54" type="qcurve"/>
      <point x="873" y="30"/>
      <point x="852" y="23" type="qcurve"/>
      <point x="820" y="23"/>
      <point x="714" y="8" type="qcurve"/>
      <point x="593" y="-18"/>
      <point x="465" y="-18" type="qcurve"/>
      <point x="262" y="-18"/>
      <point x="136" y="110" type="qcurve"/>
      <point x="48" y="202"/>
      <point x="48" y="330" type="qcurve"/>
      <point x="48" y="458"/>
      <point x="136" y="594" type="qcurve"/>
      <point x="224" y="730"/>
      <point x="390" y="809" type="qcurve"/>
      <point x="515" y="868"/>
      <point x="632.5" y="868" type="qcurve"/>
      <point x="750" y="868"/>
      <point x="833" y="849.5" type="qcurve"/>
      <point x="916" y="831"/>
      <point x="949" y="831" type="qcurve"/>
      <point x="953" y="818"/>
      <point x="953" y="761" type="qcurve"/>
      <point x="953" y="704"/>
      <point x="934" y="606" type="qcurve"/>
      <point x="931" y="592"/>
      <point x="899.5" y="592" type="qcurve"/>
      <point x="868" y="592"/>
      <point x="868" y="602" type="qcurve"/>
      <point x="869" y="621" type="line"/>
      <point x="869" y="809"/>
      <point x="636" y="809" type="qcurve"/>
      <point x="469" y="809"/>
      <point x="355" y="684" type="qcurve"/>
      <point x="215" y="530"/>
      <point x="215" y="326" type="qcurve"/>
      <point x="215" y="196"/>
      <point x="298.5" y="120.5" type="qcurve"/>
      <point x="382" y="45"/>
      <point x="485" y="45" type="qcurve"/>
      <point x="657" y="45"/>
      <point x="687" y="93" type="qcurve"/>
      <point x="691" y="101"/>
      <point x="693" y="109" type="qcurve"/>
      <point x="725" y="274" type="line"/>
      <point x="728" y="297" type="line"/>
      <point x="727" y="308" type="line"/>
      <point x="715" y="328"/>
      <point x="631" y="328" type="qcurve"/>
      <point x="604" y="328" type="line"/>
      <point x="593" y="328"/>
      <point x="593" y="343.5" type="qcurve"/>
      <point x="593" y="359"/>
      <point x="601.5" y="374" type="qcurve"/>
      <point x="610" y="389"/>
      <point x="618" y="389" type="qcurve"/>
      <point x="681" y="386"/>
      <point x="781" y="386" type="qcurve"/>
      <point x="881" y="386"/>
    </contour>
  </outline>
</glyph>
<glyph name="uni026F" format="1">
  <advance width="1514"/>
  <unicode hex="026F"/>
  <outline>
    <contour>
      <point x="152" y="178" type="qcurve"/>
      <point x="152" y="190"/>
      <point x="154.5" y="217.5" type="qcurve"/>
      <point x="157" y="245"/>
      <point x="170" y="291" type="qcurve"/>
      <point x="293" y="729" type="line"/>
      <point x="296" y="753" type="line"/>
      <point x="296" y="756"/>
      <point x="296" y="760" type="qcurve"/>
      <point x="296" y="807"/>
      <point x="200" y="807" type="qcurve"/>
      <point x="189" y="807"/>
      <point x="189" y="818" type="qcurve"/>
      <point x="189" y="829"/>
      <point x="195.5" y="846.5" type="qcurve"/>
      <point x="202" y="864"/>
      <point x="216" y="864" type="qcurve"/>
      <point x="306" y="856"/>
      <point x="389.5" y="856" type="qcurve"/>
      <point x="473" y="856"/>
      <point x="574" y="864" type="qcurve"/>
      <point x="583" y="864"/>
      <point x="583" y="848" type="qcurve"/>
      <point x="583" y="832"/>
      <point x="570" y="807"/>
      <point x="558" y="807" type="qcurve"/>
      <point x="447" y="807"/>
      <point x="425" y="729" type="qcurve"/>
      <point x="298" y="276" type="line"/>
      <point x="288" y="240"/>
      <point x="285.5" y="214" type="qcurve"/>
      <point x="283" y="188"/>
      <point x="283" y="184" type="qcurve"/>
      <point x="283" y="144"/>
      <point x="317" y="110" type="qcurve"/>
      <point x="351" y="76"/>
      <point x="444.5" y="76" type="qcurve"/>
      <point x="538" y="76"/>
      <point x="627" y="229" type="qcurve"/>
      <point x="666" y="296"/>
      <point x="690" y="379" type="qcurve"/>
      <point x="788" y="729" type="line"/>
      <point x="792" y="742"/>
      <point x="792" y="752" type="qcurve"/>
      <point x="792" y="807"/>
      <point x="696" y="807" type="qcurve"/>
      <point x="686" y="807"/>
      <point x="686" y="817.5" type="qcurve"/>
      <point x="686" y="828"/>
      <point x="693.5" y="846" type="qcurve"/>
      <point x="701" y="864"/>
      <point x="712" y="864" type="qcurve"/>
      <point x="796" y="856"/>
      <point x="891.5" y="856" type="qcurve"/>
      <point x="987" y="856"/>
      <point x="1062" y="864" type="qcurve"/>
      <point x="1071" y="864"/>
      <point x="1071" y="847.5" type="qcurve"/>
      <point x="1071" y="831"/>
      <point x="1057" y="807"/>
      <point x="1046" y="807" type="qcurve"/>
      <point x="935" y="807"/>
      <point x="913" y="729" type="qcurve"/>
      <point x="800" y="324" type="line"/>
      <point x="780" y="252"/>
      <point x="777" y="219.5" type="qcurve"/>
      <point x="774" y="187"/>
      <point x="774" y="162" type="qcurve"/>
      <point x="774" y="137"/>
      <point x="791.5" y="106.5" type="qcurve"/>
      <point x="809" y="76"/>
      <point x="888" y="76" type="qcurve"/>
      <point x="911" y="76" type="line"/>
      <point x="942" y="76"/>
      <point x="1035.5" y="133" type="qcurve"/>
      <point x="1129" y="190"/>
      <point x="1151" y="266" type="qcurve"/>
      <point x="1281" y="729" type="line"/>
      <point x="1285" y="743"/>
      <point x="1285" y="754" type="qcurve"/>
      <point x="1285" y="807"/>
      <point x="1198" y="807" type="qcurve"/>
      <point x="1188" y="807"/>
      <point x="1188" y="817.5" type="qcurve"/>
      <point x="1188" y="828"/>
      <point x="1195.5" y="846" type="qcurve"/>
      <point x="1203" y="864"/>
      <point x="1214" y="864" type="qcurve"/>
      <point x="1305" y="856"/>
      <point x="1387.5" y="856" type="qcurve"/>
      <point x="1470" y="856"/>
      <point x="1565" y="864" type="qcurve"/>
      <point x="1578" y="864"/>
      <point x="1578" y="852.5" type="qcurve"/>
      <point x="1578" y="841"/>
      <point x="1568.5" y="824" type="qcurve"/>
      <point x="1559" y="807"/>
      <point x="1549" y="807" type="qcurve"/>
      <point x="1427" y="807"/>
      <point x="1405" y="729" type="qcurve"/>
      <point x="1292" y="328" type="line"/>
      <point x="1268" y="240"/>
      <point x="1268" y="214" type="qcurve"/>
      <point x="1268" y="188"/>
      <point x="1279.5" y="171" type="qcurve"/>
      <point x="1291" y="154"/>
      <point x="1328" y="154" type="qcurve"/>
      <point x="1345" y="154"/>
      <point x="1339" y="136" type="qcurve"/>
      <point x="1334" y="117" type="line"/>
      <point x="1328" y="98"/>
      <point x="1314.5" y="98" type="qcurve"/>
      <point x="1301" y="98"/>
      <point x="1216.5" y="48.5" type="qcurve"/>
      <point x="1132" y="-1"/>
      <point x="1111.5" y="-14" type="qcurve"/>
      <point x="1091" y="-27"/>
      <point x="1080" y="-27" type="qcurve"/>
      <point x="1069" y="-27"/>
      <point x="1070" y="-14" type="qcurve"/>
      <point x="1070" y="-8"/>
      <point x="1073" y="0" type="qcurve"/>
      <point x="1101" y="84" type="line"/>
      <point x="1102" y="98" type="line"/>
      <point x="1101" y="104"/>
      <point x="1093.5" y="104" type="qcurve"/>
      <point x="1086" y="104"/>
      <point x="1075" y="96" type="qcurve"/>
      <point x="940" y="-14"/>
      <point x="812.5" y="-14" type="qcurve"/>
      <point x="685" y="-14"/>
      <point x="645" y="108" type="qcurve"/>
      <point x="639" y="127"/>
      <point x="632" y="127" type="qcurve"/>
      <point x="625" y="127"/>
      <point x="606" y="111" type="qcurve"/>
      <point x="457" y="-14"/>
      <point x="344" y="-14" type="qcurve"/>
      <point x="231" y="-14"/>
      <point x="191.5" y="46.5" type="qcurve"/>
      <point x="152" y="107"/>
    </contour>
  </outline>
</glyph>
<glyph name="uni0290" format="1">
  <advance width="891"/>
  <unicode hex="0290"/>
  <outline>
    <contour>
      <point x="850.805" y="104.885" type="qcurve"/>
      <point x="840.262" y="61.5333"/>
      <point x="798" y="-192" type="qcurve"/>
      <point x="786" y="-268"/>
      <point x="786" y="-298" type="qcurve"/>
      <point x="786" y="-405"/>
      <point x="856" y="-405" type="qcurve"/>
      <point x="880" y="-405"/>
      <point x="928" y="-366" type="qcurve"/>
      <point x="976" y="-327"/>
      <point x="1022" y="-327" type="qcurve"/>
      <point x="1068" y="-327"/>
      <point x="1085" y="-361" type="qcurve"/>
      <point x="1090" y="-370"/>
      <point x="1090" y="-380" type="qcurve"/>
      <point x="1090" y="-441"/>
      <point x="1018" y="-476" type="qcurve"/>
      <point x="983" y="-493"/>
      <point x="945" y="-493" type="qcurve"/>
      <point x="765" y="-493"/>
      <point x="702" y="-314" type="qcurve"/>
      <point x="674" y="-232"/>
      <point x="674" y="-164.5" type="qcurve"/>
      <point x="674" y="-97"/>
      <point x="677" y="-53" type="qcurve"/>
      <point x="653" y="-59"/>
      <point x="619" y="-59" type="qcurve"/>
      <point x="585" y="-59"/>
      <point x="522" y="-36.5" type="qcurve"/>
      <point x="459" y="-14"/>
      <point x="373" y="26" type="qcurve"/>
      <point x="287" y="66"/>
      <point x="248" y="66" type="qcurve"/>
      <point x="186" y="66"/>
      <point x="106" y="-23" type="qcurve"/>
      <point x="102" y="-29"/>
      <point x="85" y="-29" type="qcurve"/>
      <point x="68" y="-29"/>
      <point x="50.5" y="-6" type="qcurve"/>
      <point x="33" y="17"/>
      <point x="33" y="22.5" type="qcurve"/>
      <point x="33" y="28"/>
      <point x="36" y="31" type="qcurve"/>
      <point x="600" y="659" type="line"/>
      <point x="609" y="669"/>
      <point x="609" y="677" type="qcurve"/>
      <point x="609" y="693"/>
      <point x="569" y="705" type="qcurve"/>
      <point x="437" y="745"/>
      <point x="337.5" y="745" type="qcurve"/>
      <point x="238" y="745"/>
      <point x="238" y="688" type="qcurve"/>
      <point x="238" y="675"/>
      <point x="257" y="650" type="qcurve"/>
      <point x="276" y="625"/>
      <point x="276" y="596" type="qcurve"/>
      <point x="276" y="532"/>
      <point x="215" y="532" type="qcurve"/>
      <point x="137" y="532"/>
      <point x="137" y="612" type="qcurve"/>
      <point x="137" y="680"/>
      <point x="215.5" y="761" type="qcurve"/>
      <point x="294" y="842"/>
      <point x="420" y="842" type="qcurve"/>
      <point x="482" y="842"/>
      <point x="572" y="814" type="qcurve"/>
      <point x="662" y="786"/>
      <point x="710.5" y="786" type="qcurve"/>
      <point x="759" y="786"/>
      <point x="782" y="811" type="qcurve"/>
      <point x="823" y="856" type="line"/>
      <point x="828" y="861"/>
      <point x="843.5" y="861" type="qcurve"/>
      <point x="859" y="861"/>
      <point x="868" y="846.5" type="qcurve"/>
      <point x="877" y="832"/>
      <point x="877" y="826" type="qcurve"/>
      <point x="877" y="820"/>
      <point x="874" y="817" type="qcurve"/>
      <point x="283" y="162" type="line"/>
      <point x="285" y="154" type="line"/>
      <point x="328" y="151" type="line"/>
      <point x="389" y="147"/>
      <point x="517.5" y="94" type="qcurve"/>
      <point x="646" y="41"/>
      <point x="684" y="41" type="qcurve"/>
      <point x="768" y="41"/>
      <point x="768" y="129" type="qcurve"/>
      <point x="768" y="151"/>
      <point x="740.5" y="175.5" type="qcurve"/>
      <point x="713" y="200"/>
      <point x="713" y="231" type="qcurve"/>
      <point x="713" y="295"/>
      <point x="782" y="295" type="qcurve"/>
      <point x="822" y="295"/>
      <point x="845" y="261.5" type="qcurve"/>
      <point x="868" y="228"/>
      <point x="868" y="198" type="qcurve"/>
      <point x="868" y="169"/>
    </contour>
  </outline>
</glyph>
<glyph name="uni029B" format="1">
  <advance width="1036"/>
  <unicode hex="029B"/>
  <outline>
    <contour>
      <point x="934" y="391" type="qcurve" smooth="yes"/>
      <point x="944" y="391"/>
      <point x="945" y="334"/>
      <point x="922" y="328" type="qcurve"/>
      <point x="866" y="328"/>
      <point x="842" y="301"/>
      <point x="837" y="274" type="qcurve" smooth="yes"/>
      <point x="806" y="111" type="line" smooth="yes"/>
      <point x="805" y="107"/>
      <point x="805" y="100" type="qcurve" smooth="yes"/>
      <point x="805" y="78"/>
      <point x="828" y="78" type="qcurve" smooth="yes"/>
      <point x="838" y="78"/>
      <point x="838" y="33"/>
      <point x="821" y="23"/>
      <point x="786" y="23"/>
      <point x="680" y="8" type="qcurve"/>
      <point x="558" y="-18"/>
      <point x="431" y="-18" type="qcurve" smooth="yes"/>
      <point x="228" y="-18"/>
      <point x="102" y="110" type="qcurve" smooth="yes"/>
      <point x="12" y="200"/>
      <point x="12" y="461"/>
      <point x="91" y="578" type="qcurve" smooth="yes"/>
      <point x="192" y="732"/>
      <point x="359" y="810" type="qcurve" smooth="yes"/>
      <point x="483" y="868"/>
      <point x="697" y="868"/>
      <point x="812" y="846" type="qcurve"/>
      <point x="902" y="1092"/>
      <point x="1061" y="1179" type="qcurve" smooth="yes"/>
      <point x="1137" y="1221"/>
      <point x="1285" y="1221"/>
      <point x="1316" y="1183" type="qcurve" smooth="yes"/>
      <point x="1332" y="1163"/>
      <point x="1332" y="1139" type="qcurve" smooth="yes"/>
      <point x="1332" y="1091"/>
      <point x="1285" y="1067" type="qcurve"/>
      <point x="1259" y="1057" type="line" smooth="yes"/>
      <point x="1249" y="1055"/>
      <point x="1239" y="1055" type="qcurve" smooth="yes"/>
      <point x="1190" y="1055"/>
      <point x="1159" y="1094" type="qcurve" smooth="yes"/>
      <point x="1124" y="1133"/>
      <point x="1101" y="1133" type="qcurve" smooth="yes"/>
      <point x="1003" y="1133"/>
      <point x="961" y="920" type="qcurve" smooth="yes"/>
      <point x="900" y="606" type="line" smooth="yes"/>
      <point x="897" y="593"/>
      <point x="834" y="592"/>
      <point x="834" y="602" type="qcurve" smooth="yes"/>
      <point x="834" y="623" type="line" smooth="yes"/>
      <point x="834" y="809"/>
      <point x="601" y="809" type="qcurve" smooth="yes"/>
      <point x="436" y="808"/>
      <point x="322" y="684" type="qcurve" smooth="yes"/>
      <point x="181" y="530"/>
      <point x="181" y="330" type="qcurve" smooth="yes"/>
      <point x="181" y="244"/>
      <point x="231" y="165" type="qcurve" smooth="yes"/>
      <point x="249" y="137" type="line" smooth="yes"/>
      <point x="280" y="92"/>
      <point x="401" y="45"/>
      <point x="451" y="45" type="qcurve" smooth="yes"/>
      <point x="646" y="45"/>
      <point x="658" y="109" type="qcurve" smooth="yes"/>
      <point x="690" y="274" type="line" smooth="yes"/>
      <point x="693" y="286"/>
      <point x="693" y="295" type="qcurve" smooth="yes"/>
      <point x="693" y="317"/>
      <point x="642" y="328"/>
      <point x="570" y="328" type="qcurve" smooth="yes"/>
      <point x="558" y="328"/>
      <point x="558" y="374"/>
      <point x="578" y="391"/>
      <point x="582" y="391" type="qcurve" smooth="yes"/>
      <point x="614" y="387"/>
      <point x="897" y="387"/>
    </contour>
  </outline>
</glyph>
<glyph name="circumflex" format="1">
  <advance width="737"/>
  <unicode hex="02C6"/>
  <outline>
    <contour>
      <point x="635" y="1335" type="qcurve" smooth="yes"/>
      <point x="760" y="983" type="line"/>
      <point x="759" y="974" type="line" smooth="yes"/>
      <point x="753" y="959"/>
      <point x="729" y="956" type="qcurve" smooth="yes"/>
      <point x="722" y="956"/>
      <point x="719" y="961" type="qcurve" smooth="yes"/>
      <point x="596" y="1176" type="line" smooth="yes"/>
      <point x="580" y="1206"/>
      <point x="571" y="1206" type="qcurve" smooth="yes"/>
      <point x="563" y="1206"/>
      <point x="537" y="1180" type="qcurve" smooth="yes"/>
      <point x="326" y="956" type="line" smooth="yes"/>
      <point x="323" y="953"/>
      <point x="317" y="953" type="qcurve" smooth="yes"/>
      <point x="287" y="953"/>
      <point x="287" y="980" type="qcurve" smooth="yes"/>
      <point x="287" y="983"/>
      <point x="289" y="987" type="qcurve" smooth="yes"/>
      <point x="549" y="1341" type="line" smooth="yes"/>
      <point x="575" y="1376"/>
      <point x="598" y="1376" type="qcurve" smooth="yes"/>
      <point x="620" y="1376"/>
    </contour>
  </outline>
</glyph>
<glyph name="caron" format="1">
  <advance width="737"/>
  <unicode hex="02C7"/>
  <outline>
    <contour>
      <point x="885" y="1342" type="qcurve"/>
      <point x="625" y="988" type="line" smooth="yes"/>
      <point x="599" y="953"/>
      <point x="576" y="953" type="qcurve" smooth="yes"/>
      <point x="554" y="953"/>
      <point x="539" y="994" type="qcurve" smooth="yes"/>
      <point x="414" y="1346" type="line"/>
      <point x="420" y="1369"/>
      <point x="443" y="1369" type="qcurve" smooth="yes"/>
      <point x="448" y="1369"/>
      <point x="455" y="1368" type="qcurve"/>
      <point x="578" y="1153" type="line" smooth="yes"/>
      <point x="595" y="1123"/>
      <point x="605" y="1123" type="qcurve" smooth="yes"/>
      <point x="612" y="1123"/>
      <point x="638" y="1149" type="qcurve" smooth="yes"/>
      <point x="849" y="1373" type="line"/>
      <point x="865" y="1372" type="line" smooth="yes"/>
      <point x="877" y="1369"/>
      <point x="882" y="1355" type="qcurve" smooth="yes"/>
      <point x="884" y="1349"/>
    </contour>
  </outline>
</glyph>
<glyph name="breve" format="1">
  <advance width="737"/>
  <unicode hex="02D8"/>
  <outline>
    <contour>
      <point x="883" y="1228" type="qcurve"/>
      <point x="836" y="953"/>
      <point x="332" y="953"/>
      <point x="332" y="1142" type="qcurve" smooth="yes"/>
      <point x="332" y="1184"/>
      <point x="342" y="1228" type="qcurve"/>
      <point x="355" y="1236"/>
      <point x="375" y="1236"/>
      <point x="385" y="1228" type="qcurve"/>
      <point x="390" y="1062"/>
      <point x="774" y="1062"/>
      <point x="838" y="1228" type="qcurve"/>
      <point x="849" y="1236"/>
      <point x="873" y="1236"/>
    </contour>
  </outline>
</glyph>
<glyph name="dotaccent" format="1">
  <advance width="791"/>
  <unicode hex="02D9"/>
  <outline>
    <contour>
      <point x="712" y="1135" type="qcurve" smooth="yes"/>
      <point x="712" y="1077"/>
      <point x="645" y="1010"/>
      <point x="600" y="1010" type="qcurve" smooth="yes"/>
      <point x="513" y="1010"/>
      <point x="513" y="1100" type="qcurve" smooth="yes"/>
      <point x="513" y="1152"/>
      <point x="583" y="1225"/>
      <point x="627" y="1225" type="qcurve" smooth="yes"/>
      <point x="712" y="1224"/>
    </contour>
  </outline>
</glyph>
<glyph name="tilde" format="1">
  <advance width="569"/>
  <unicode hex="02DC"/>
  <outline>
    <contour>
      <point x="620" y="1010" type="qcurve" smooth="yes"/>
      <point x="575" y="1010"/>
      <point x="353" y="1104"/>
      <point x="273" y="1104"/>
      <point x="220" y="1055"/>
      <point x="211" y="1006" type="qcurve"/>
      <point x="209" y="996"/>
      <point x="156" y="996"/>
      <point x="158" y="1006" type="qcurve"/>
      <point x="200" y="1217"/>
      <point x="352" y="1217" type="qcurve" smooth="yes"/>
      <point x="406" y="1217"/>
      <point x="616" y="1124"/>
      <point x="696" y="1124"/>
      <point x="756" y="1191"/>
      <point x="760" y="1225" type="qcurve"/>
      <point x="760" y="1235"/>
      <point x="814" y="1235"/>
      <point x="813" y="1225" type="qcurve"/>
      <point x="793" y="1140"/>
      <point x="694" y="1010"/>
    </contour>
  </outline>
</glyph>
<glyph name="hungarumlaut" format="1">
  <advance width="737"/>
  <unicode hex="02DD"/>
  <outline>
    <contour>
      <point x="561" y="1258" type="qcurve" smooth="yes"/>
      <point x="287" y="955" type="line" smooth="yes"/>
      <point x="263" y="929"/>
      <point x="213" y="929"/>
      <point x="213" y="967"/>
      <point x="226" y="985" type="qcurve" smooth="yes"/>
      <point x="474" y="1324" type="line" smooth="yes"/>
      <point x="480" y="1333"/>
      <point x="520" y="1333"/>
      <point x="564" y="1279"/>
      <point x="564" y="1261"/>
    </contour>
    <contour>
      <point x="918" y="1258" type="qcurve" smooth="yes"/>
      <point x="644" y="955" type="line" smooth="yes"/>
      <point x="620" y="929"/>
      <point x="570" y="929"/>
      <point x="570" y="967"/>
      <point x="583" y="985" type="qcurve" smooth="yes"/>
      <point x="831" y="1324" type="line" smooth="yes"/>
      <point x="837" y="1333"/>
      <point x="877" y="1333"/>
      <point x="921" y="1279"/>
      <point x="921" y="1261"/>
    </contour>
  </outline>
</glyph>
<glyph name="gravecomb" format="2">
  <unicode hex="0300"/>
  <anchor x="-423.0" y="880" name="_mkmk_anchor"/>
  <anchor x="-0.1367289573765902" y="879.9265593326412" name="_mkmk anchor"/>
  <anchor x="0" y="900" name="_above"/>
  <outline>
    <contour>
      <point x="89.0" y="986" type="line" smooth="yes"/>
      <point x="94.29674124533824" y="974.1279937604806"/>
      <point x="94.0" y="966" type="qcurve" smooth="yes"/>
      <point x="94.0" y="929"/>
      <point x="58.0" y="929" type="qcurve" smooth="yes"/>
      <point x="33.77219380288233" y="928.8579014265495"/>
      <point x="17.0" y="956" type="qcurve" smooth="yes"/>
      <point x="-169.0" y="1257" type="line" smooth="yes"/>
      <point x="-170.4868288404792" y="1259.4061047364862"/>
      <point x="-171.0" y="1265" type="qcurve" smooth="yes"/>
      <point x="-171.0" y="1285"/>
      <point x="-105.0" y="1327"/>
      <point x="-63.0" y="1327"/>
      <point x="-56.0" y="1311" type="qcurve" smooth="yes"/>
    </contour>
  </outline>
</glyph>
<glyph name="acutecomb" format="2">
  <unicode hex="0301"/>
  <outline>
    <contour>
      <point x="325" y="1258" type="qcurve" smooth="yes"/>
      <point x="51" y="955" type="line" smooth="yes"/>
      <point x="27" y="929"/>
      <point x="-23" y="929"/>
      <point x="-23" y="967"/>
      <point x="-10" y="985" type="qcurve" smooth="yes"/>
      <point x="238" y="1324" type="line" smooth="yes"/>
      <point x="244" y="1333"/>
      <point x="284" y="1333"/>
      <point x="328" y="1279"/>
      <point x="328" y="1261"/>
    </contour>
  </outline>
</glyph>
<glyph name="uni0302" format="2">
  <unicode hex="0302"/>
  <anchor x="-4" y="880" name="_mkmk_anchor"/>
  <anchor x="-4" y="880" name="_mkmk anchor"/>
  <anchor x="0" y="900" name="_above"/>
  <outline>
    <contour>
      <point x="125" y="1335" type="qcurve" smooth="yes"/>
      <point x="250" y="983" type="line"/>
      <point x="249" y="974" type="line" smooth="yes"/>
      <point x="243" y="959"/>
      <point x="219" y="956" type="qcurve" smooth="yes"/>
      <point x="212" y="956"/>
      <point x="209" y="961" type="qcurve" smooth="yes"/>
      <point x="86" y="1176" type="line" smooth="yes"/>
      <point x="70" y="1206"/>
      <point x="61" y="1206" type="qcurve" smooth="yes"/>
      <point x="53" y="1206"/>
      <point x="27" y="1180" type="qcurve" smooth="yes"/>
      <point x="-184" y="956" type="line" smooth="yes"/>
      <point x="-187" y="953"/>
      <point x="-193" y="953" type="qcurve" smooth="yes"/>
      <point x="-223" y="953"/>
      <point x="-223" y="980" type="qcurve" smooth="yes"/>
      <point x="-223" y="983"/>
      <point x="-221" y="987" type="qcurve" smooth="yes"/>
      <point x="39" y="1341" type="line" smooth="yes"/>
      <point x="65" y="1376"/>
      <point x="88" y="1376" type="qcurve" smooth="yes"/>
      <point x="110" y="1376"/>
    </contour>
  </outline>
</glyph>
<glyph name="tildecomb" format="2">
  <unicode hex="0303"/>
  <outline>
    <contour>
      <point x="159" y="1010" type="qcurve" smooth="yes"/>
      <point x="114" y="1010"/>
      <point x="-108" y="1104"/>
      <point x="-188" y="1104"/>
      <point x="-241" y="1055"/>
      <point x="-250" y="1006" type="qcurve"/>
      <point x="-252" y="996"/>
      <point x="-305" y="996"/>
      <point x="-303" y="1006" type="qcurve"/>
      <point x="-261" y="1217"/>
      <point x="-109" y="1217" type="qcurve" smooth="yes"/>
      <point x="-55" y="1217"/>
      <point x="155" y="1124"/>
      <point x="235" y="1124"/>
      <point x="295" y="1191"/>
      <point x="299" y="1225" type="qcurve"/>
      <point x="299" y="1235"/>
      <point x="353" y="1235"/>
      <point x="352" y="1225" type="qcurve"/>
      <point x="332" y="1140"/>
      <point x="233" y="1010"/>
    </contour>
  </outline>
</glyph>
<glyph name="uni0304" format="2">
  <unicode hex="0304"/>
  <anchor x="-140" y="880" name="_mkmk_anchor"/>
  <anchor x="-69" y="1245" name="mkmk_anchor"/>
  <anchor x="-69" y="1245" name="mkmk anchor"/>
  <anchor x="-140" y="880" name="_mkmk anchor"/>
  <anchor x="-136" y="900" name="_above"/>
  <outline>
    <contour>
      <point x="244" y="1064" type="qcurve" smooth="yes"/>
      <point x="-202" y="1064" type="line" smooth="yes"/>
      <point x="-209" y="1064"/>
      <point x="-209" y="1099"/>
      <point x="-185" y="1158"/>
      <point x="-174" y="1158" type="qcurve" smooth="yes"/>
      <point x="277" y="1158" type="line" smooth="yes"/>
      <point x="283" y="1158"/>
      <point x="283" y="1128"/>
      <point x="256" y="1064"/>
    </contour>
  </outline>
</glyph>
<glyph name="uni0305" format="2">
  <unicode hex="0305"/>
  <outline>
    <contour>
      <point x="560.0" y="1518.0" type="qcurve" smooth="yes"/>
      <point x="-302.0" y="1518.0" type="line" smooth="yes"/>
      <point x="-325.0" y="1518.0"/>
      <point x="-325.0" y="1630.0"/>
      <point x="-302.0" y="1630.0" type="qcurve" smooth="yes"/>
      <point x="560.0" y="1630.0" type="line" smooth="yes"/>
      <point x="583.0" y="1630.0"/>
      <point x="583.0" y="1518.0"/>
    </contour>
  </outline>
</glyph>
<glyph name="uni0306" format="2">
  <unicode hex="0306"/>
  <anchor x="-220" y="880" name="_mkmk_anchor"/>
  <anchor x="-149" y="1245" name="mkmk_anchor"/>
  <anchor x="-149" y="1245" name="mkmk anchor"/>
  <anchor x="-220" y="880" name="_mkmk anchor"/>
  <anchor x="-216" y="900" name="_above"/>
  <outline>
    <contour>
      <point x="327" y="1228" type="qcurve"/>
      <point x="280" y="953"/>
      <point x="-224" y="953"/>
      <point x="-224" y="1142" type="qcurve" smooth="yes"/>
      <point x="-224" y="1184"/>
      <point x="-214" y="1228" type="qcurve"/>
      <point x="-201" y="1236"/>
      <point x="-181" y="1236"/>
      <point x="-171" y="1228" type="qcurve"/>
      <point x="-166" y="1062"/>
      <point x="218" y="1062"/>
      <point x="282" y="1228" type="qcurve"/>
      <point x="293" y="1236"/>
      <point x="317" y="1236"/>
    </contour>
  </outline>
</glyph>
<glyph name="uni0307" format="2">
  <unicode hex="0307"/>
  <anchor x="-232" y="880" name="_mkmk_anchor"/>
  <anchor x="-160" y="1245" name="mkmk_anchor"/>
  <anchor x="-160" y="1245" name="mkmk anchor"/>
  <anchor x="-232" y="880" name="_mkmk anchor"/>
  <anchor x="-227" y="900" name="_above"/>
  <outline>
    <contour>
      <point x="139" y="1135" type="qcurve" smooth="yes"/>
      <point x="139" y="1077"/>
      <point x="72" y="1010"/>
      <point x="27" y="1010" type="qcurve" smooth="yes"/>
      <point x="-60" y="1010"/>
      <point x="-60" y="1100" type="qcurve" smooth="yes"/>
      <point x="-60" y="1152"/>
      <point x="10" y="1225"/>
      <point x="54" y="1225" type="qcurve" smooth="yes"/>
      <point x="139" y="1224"/>
    </contour>
  </outline>
</glyph>
<glyph name="uni0308" format="2">
  <unicode hex="0308"/>
  <anchor x="-280" y="880" name="_mkmk_anchor"/>
  <anchor x="-208" y="1245" name="mkmk_anchor"/>
  <anchor x="-208" y="1245" name="mkmk anchor"/>
  <anchor x="-280" y="880" name="_mkmk anchor"/>
  <anchor x="-276" y="900" name="_above"/>
  <outline>
    <contour>
      <point x="-35" y="1135" type="qcurve" smooth="yes"/>
      <point x="-35" y="1077"/>
      <point x="-102" y="1010"/>
      <point x="-147" y="1010" type="qcurve" smooth="yes"/>
      <point x="-234" y="1010"/>
      <point x="-234" y="1100" type="qcurve" smooth="yes"/>
      <point x="-234" y="1152"/>
      <point x="-164" y="1225"/>
      <point x="-120" y="1225" type="qcurve" smooth="yes"/>
      <point x="-35" y="1224"/>
    </contour>
    <contour>
      <point x="322" y="1135" type="qcurve" smooth="yes"/>
      <point x="322" y="1077"/>
      <point x="255" y="1010"/>
      <point x="210" y="1010" type="qcurve" smooth="yes"/>
      <point x="123" y="1010"/>
      <point x="123" y="1100" type="qcurve" smooth="yes"/>
      <point x="123" y="1152"/>
      <point x="193" y="1225"/>
      <point x="237" y="1225" type="qcurve" smooth="yes"/>
      <point x="322" y="1224"/>
    </contour>
  </outline>
</glyph>
<glyph name="hookabovecomb" format="1">
  <advance width="0"/>
  <unicode hex="0309"/>
  <outline>
    <contour>
      <point x="166" y="1283" type="qcurve" smooth="yes"/>
      <point x="166" y="1235"/>
      <point x="69" y="1147"/>
      <point x="-46" y="1107"/>
      <point x="-46" y="1089" type="qcurve" smooth="yes"/>
      <point x="-46" y="1084"/>
      <point x="-43" y="1078" type="qcurve" smooth="yes"/>
      <point x="-21" y="1040" type="line" smooth="yes"/>
      <point x="-13" y="1026"/>
      <point x="-85" y="993"/>
      <point x="-113" y="993"/>
      <point x="-118" y="1003" type="qcurve" smooth="yes"/>
      <point x="-161" y="1087" type="line" smooth="yes"/>
      <point x="-164" y="1093"/>
      <point x="-165" y="1099" type="qcurve" smooth="yes"/>
      <point x="-165" y="1125"/>
      <point x="-105" y="1143" type="qcurve" smooth="yes"/>
      <point x="25" y="1183"/>
      <point x="25" y="1260" type="qcurve" smooth="yes"/>
      <point x="25" y="1288"/>
      <point x="-22" y="1319"/>
      <point x="-63" y="1319" type="qcurve" smooth="yes"/>
      <point x="-110" y="1319"/>
      <point x="-165" y="1280" type="qcurve" smooth="yes"/>
      <point x="-177" y="1271"/>
      <point x="-189" y="1297"/>
      <point x="-189" y="1313"/>
      <point x="-146" y="1346"/>
      <point x="-28" y="1388"/>
      <point x="28" y="1388" type="qcurve" smooth="yes"/>
      <point x="98" y="1388"/>
      <point x="166" y="1331"/>
    </contour>
  </outline>
</glyph>
<glyph name="uni030A" format="2">
  <unicode hex="030A"/>
  <anchor x="-203" y="880" name="_mkmk_anchor"/>
  <anchor x="-140" y="1364" name="mkmk_anchor"/>
  <anchor x="-140" y="1364" name="mkmk anchor"/>
  <anchor x="-203" y="880" name="_mkmk anchor"/>
  <anchor x="-200" y="900" name="_above"/>
  <outline>
    <contour>
      <point x="44" y="1333" type="qcurve" smooth="yes"/>
      <point x="145" y="1333"/>
      <point x="204" y="1261" type="qcurve" smooth="yes"/>
      <point x="224" y="1233" type="line"/>
      <point x="238" y="1201" type="line"/>
      <point x="247" y="1163" type="line" smooth="yes"/>
      <point x="248" y="1151"/>
      <point x="248" y="1139" type="qcurve" smooth="yes"/>
      <point x="248" y="1045"/>
      <point x="175" y="988" type="qcurve" smooth="yes"/>
      <point x="145" y="968" type="line" smooth="yes"/>
      <point x="99" y="944"/>
      <point x="44" y="944" type="qcurve" smooth="yes"/>
      <point x="-57" y="944"/>
      <point x="-117" y="1015" type="qcurve" smooth="yes"/>
      <point x="-161" y="1068"/>
      <point x="-161" y="1139" type="qcurve" smooth="yes"/>
      <point x="-161" y="1232"/>
      <point x="-89" y="1289" type="qcurve" smooth="yes"/>
      <point x="-33" y="1333"/>
    </contour>
    <contour>
      <point x="44" y="1012" type="qcurve" smooth="yes"/>
      <point x="108" y="1012"/>
      <point x="137" y="1072" type="qcurve" smooth="yes"/>
      <point x="152" y="1102"/>
      <point x="152" y="1139" type="qcurve" smooth="yes"/>
      <point x="152" y="1213"/>
      <point x="103" y="1248" type="qcurve" smooth="yes"/>
      <point x="80" y="1260" type="line" smooth="yes"/>
      <point x="63" y="1266"/>
      <point x="44" y="1266" type="qcurve" smooth="yes"/>
      <point x="-18" y="1266"/>
      <point x="-49" y="1208" type="qcurve" smooth="yes"/>
      <point x="-65" y="1177"/>
      <point x="-65" y="1139" type="qcurve" smooth="yes"/>
      <point x="-65" y="1066"/>
      <point x="-15" y="1031" type="qcurve" smooth="yes"/>
      <point x="11" y="1012"/>
    </contour>
  </outline>
</glyph>
<glyph name="uni030B" format="2">
  <unicode hex="030B"/>
  <outline>
    <contour>
      <point x="116" y="1258" type="qcurve" smooth="yes"/>
      <point x="-158" y="955" type="line" smooth="yes"/>
      <point x="-182" y="929"/>
      <point x="-232" y="929"/>
      <point x="-232" y="967"/>
      <point x="-219" y="985" type="qcurve" smooth="yes"/>
      <point x="29" y="1324" type="line" smooth="yes"/>
      <point x="35" y="1333"/>
      <point x="75" y="1333"/>
      <point x="119" y="1279"/>
      <point x="119" y="1261"/>
    </contour>
    <contour>
      <point x="473" y="1258" type="qcurve" smooth="yes"/>
      <point x="199" y="955" type="line" smooth="yes"/>
      <point x="175" y="929"/>
      <point x="125" y="929"/>
      <point x="125" y="967"/>
      <point x="138" y="985" type="qcurve" smooth="yes"/>
      <point x="386" y="1324" type="line" smooth="yes"/>
      <point x="392" y="1333"/>
      <point x="432" y="1333"/>
      <point x="476" y="1279"/>
      <point x="476" y="1261"/>
    </contour>
  </outline>
</glyph>
<glyph name="uni030C" format="2">
  <unicode hex="030C"/>
  <anchor x="-247" y="880" name="_mkmk_anchor"/>
  <anchor x="-247" y="880" name="_mkmk anchor"/>
  <anchor x="-244" y="900" name="_above"/>
  <outline>
    <contour>
      <point x="318" y="1315" type="qcurve"/>
      <point x="58" y="961" type="line" smooth="yes"/>
      <point x="32" y="926"/>
      <point x="9" y="926" type="qcurve" smooth="yes"/>
      <point x="-13" y="926"/>
      <point x="-28" y="967" type="qcurve" smooth="yes"/>
      <point x="-153" y="1319" type="line"/>
      <point x="-147" y="1342"/>
      <point x="-124" y="1342" type="qcurve" smooth="yes"/>
      <point x="-119" y="1342"/>
      <point x="-112" y="1341" type="qcurve"/>
      <point x="11" y="1126" type="line" smooth="yes"/>
      <point x="28" y="1096"/>
      <point x="38" y="1096" type="qcurve" smooth="yes"/>
      <point x="45" y="1096"/>
      <point x="71" y="1122" type="qcurve" smooth="yes"/>
      <point x="282" y="1346" type="line"/>
      <point x="298" y="1345" type="line" smooth="yes"/>
      <point x="310" y="1342"/>
      <point x="315" y="1328" type="qcurve" smooth="yes"/>
      <point x="317" y="1322"/>
    </contour>
  </outline>
</glyph>
<glyph name="uni030D" format="2">
  <unicode hex="030D"/>
  <anchor x="-472.724" y="900" name="_above"/>
  <outline>
    <contour>
      <point x="65" y="1410" type="line"/>
      <point x="175" y="1410" type="line"/>
      <point x="85" y="1020" type="line"/>
      <point x="-25" y="1020" type="line"/>
    </contour>
  </outline>
</glyph>
<glyph name="uni030F" format="2">
  <unicode hex="030F"/>
  <anchor x="-447" y="880" name="_mkmk_anchor"/>
  <anchor x="-447" y="880" name="_mkmk anchor"/>
  <anchor x="-443" y="900" name="_above"/>
  <outline>
    <contour>
      <point x="226" y="986" type="line" smooth="yes"/>
      <point x="231" y="974"/>
      <point x="231" y="966" type="qcurve" smooth="yes"/>
      <point x="231" y="929"/>
      <point x="195" y="929" type="qcurve" smooth="yes"/>
      <point x="171" y="929"/>
      <point x="154" y="956" type="qcurve" smooth="yes"/>
      <point x="-32" y="1257" type="line" smooth="yes"/>
      <point x="-34" y="1259"/>
      <point x="-34" y="1265" type="qcurve" smooth="yes"/>
      <point x="-34" y="1285"/>
      <point x="32" y="1327"/>
      <point x="74" y="1327"/>
      <point x="81" y="1311" type="qcurve" smooth="yes"/>
    </contour>
    <contour>
      <point x="-84" y="986" type="line" smooth="yes"/>
      <point x="-79" y="974"/>
      <point x="-79" y="966" type="qcurve" smooth="yes"/>
      <point x="-79" y="929"/>
      <point x="-115" y="929" type="qcurve" smooth="yes"/>
      <point x="-139" y="929"/>
      <point x="-156" y="956" type="qcurve" smooth="yes"/>
      <point x="-342" y="1257" type="line" smooth="yes"/>
      <point x="-344" y="1259"/>
      <point x="-344" y="1265" type="qcurve" smooth="yes"/>
      <point x="-344" y="1285"/>
      <point x="-278" y="1327"/>
      <point x="-236" y="1327"/>
      <point x="-229" y="1311" type="qcurve" smooth="yes"/>
    </contour>
  </outline>
</glyph>
<glyph name="uni0311" format="2">
  <unicode hex="0311"/>
  <outline>
    <contour>
      <point x="-265" y="937" type="qcurve"/>
      <point x="-218" y="1212"/>
      <point x="59" y="1212" type="qcurve" smooth="yes"/>
      <point x="286" y="1212"/>
      <point x="286" y="1023" type="qcurve" smooth="yes"/>
      <point x="286" y="981"/>
      <point x="276" y="937" type="qcurve"/>
      <point x="263" y="929"/>
      <point x="243" y="929"/>
      <point x="233" y="937" type="qcurve"/>
      <point x="230" y="976" type="line" smooth="yes"/>
      <point x="220" y="1029"/>
      <point x="179" y="1061" type="qcurve" smooth="yes"/>
      <point x="126" y="1103"/>
      <point x="38" y="1103" type="qcurve" smooth="yes"/>
      <point x="-156" y="1103"/>
      <point x="-220" y="937" type="qcurve"/>
      <point x="-231" y="929"/>
      <point x="-255" y="929"/>
    </contour>
  </outline>
</glyph>
<glyph name="uni0330" format="2">
  <unicode hex="0330"/>
  <anchor x="-36.859649122807014" y="-75" name="_below"/>
  <outline>
    <contour>
      <point x="76.14035087719299" y="-466" type="qcurve" smooth="yes"/>
      <point x="31.140350877192986" y="-466"/>
      <point x="-190.859649122807" y="-372"/>
      <point x="-270.859649122807" y="-372"/>
      <point x="-323.859649122807" y="-421"/>
      <point x="-332.859649122807" y="-470" type="qcurve"/>
      <point x="-334.859649122807" y="-480"/>
      <point x="-387.859649122807" y="-480"/>
      <point x="-385.859649122807" y="-470" type="qcurve"/>
      <point x="-343.859649122807" y="-259"/>
      <point x="-191.859649122807" y="-259" type="qcurve" smooth="yes"/>
      <point x="-137.859649122807" y="-259"/>
      <point x="72.14035087719299" y="-352"/>
      <point x="152.140350877193" y="-352"/>
      <point x="212.140350877193" y="-285"/>
      <point x="216.140350877193" y="-251" type="qcurve"/>
      <point x="216.140350877193" y="-241"/>
      <point x="270.140350877193" y="-241"/>
      <point x="269.140350877193" y="-251" type="qcurve"/>
      <point x="249.140350877193" y="-336"/>
      <point x="150.140350877193" y="-466"/>
    </contour>
  </outline>
</glyph>
<glyph name="uni1DCF" format="1">
  <advance width="0"/>
  <unicode hex="1DCF"/>
  <outline>
    <contour>
      <point x="-520" y="-75" type="move" name="_below"/>
    </contour>
    <component base="uni035B" xOffset="-170" yOffset="-1720"/>
  </outline>
</glyph>
<glyph name="uni2126" format="1">
  <advance width="1778"/>
  <unicode hex="2126"/>
  <outline>
    <contour>
      <point x="1582" y="23" type="line" smooth="yes"/>
      <point x="1582" y="-7"/>
      <point x="1559" y="-7" type="qcurve" smooth="yes"/>
      <point x="1513" y="-7" type="line"/>
      <point x="1306" y="0"/>
      <point x="944" y="0" type="qcurve" smooth="yes"/>
      <point x="931" y="0"/>
      <point x="931" y="46"/>
      <point x="948" y="57" type="qcurve" smooth="yes"/>
      <point x="1077" y="146"/>
      <point x="1280" y="519"/>
      <point x="1280" y="721" type="qcurve" smooth="yes"/>
      <point x="1280" y="971"/>
      <point x="988" y="1314"/>
      <point x="816" y="1314" type="qcurve" smooth="yes"/>
      <point x="676" y="1314"/>
      <point x="486" y="1170"/>
      <point x="370" y="896"/>
      <point x="370" y="792" type="qcurve" smooth="yes"/>
      <point x="370" y="556"/>
      <point x="565" y="157"/>
      <point x="702" y="57" type="qcurve" smooth="yes"/>
      <point x="721" y="43"/>
      <point x="721" y="0"/>
      <point x="709" y="0" type="qcurve" smooth="yes"/>
      <point x="338" y="0"/>
      <point x="137" y="-7" type="qcurve"/>
      <point x="92" y="-7" type="line" smooth="yes"/>
      <point x="69" y="-7"/>
      <point x="69" y="23" type="qcurve" smooth="yes"/>
      <point x="69" y="340" type="line" smooth="yes"/>
      <point x="69" y="357"/>
      <point x="144" y="357"/>
      <point x="144" y="340" type="qcurve" smooth="yes"/>
      <point x="144" y="202"/>
      <point x="292" y="74"/>
      <point x="403" y="69" type="qcurve" smooth="yes"/>
      <point x="597" y="62" type="line"/>
      <point x="437" y="148"/>
      <point x="180" y="526"/>
      <point x="180" y="742" type="qcurve" smooth="yes"/>
      <point x="180" y="966"/>
      <point x="531" y="1385"/>
      <point x="827" y="1385" type="qcurve" smooth="yes"/>
      <point x="1088" y="1385"/>
      <point x="1471" y="1006"/>
      <point x="1471" y="735" type="qcurve" smooth="yes"/>
      <point x="1471" y="548"/>
      <point x="1211" y="170"/>
      <point x="1059" y="62" type="qcurve"/>
      <point x="1247" y="69" type="line" smooth="yes"/>
      <point x="1357" y="73"/>
      <point x="1507" y="202"/>
      <point x="1507" y="340" type="qcurve" smooth="yes"/>
      <point x="1507" y="357"/>
      <point x="1582" y="357"/>
      <point x="1582" y="340" type="qcurve" smooth="yes"/>
    </contour>
  </outline>
</glyph>
<glyph name="uni25CC" format="1">
  <advance width="2048"/>
  <unicode hex="25CC"/>
  <outline>
    <contour>
      <point x="504" y="856" type="qcurve"/>
      <point x="504" y="877"/>
      <point x="519" y="892" type="qcurve"/>
      <point x="534" y="907"/>
      <point x="555" y="907" type="qcurve"/>
      <point x="576" y="907"/>
      <point x="591" y="892" type="qcurve"/>
      <point x="606" y="877"/>
      <point x="606" y="856" type="qcurve"/>
      <point x="606" y="835"/>
      <point x="591" y="820" type="qcurve"/>
      <point x="576" y="805"/>
      <point x="555" y="805" type="qcurve"/>
      <point x="534" y="805"/>
      <point x="519" y="820" type="qcurve"/>
      <point x="504" y="835"/>
    </contour>
    <contour>
      <point x="504" y="5" type="qcurve"/>
      <point x="504" y="26"/>
      <point x="519" y="41" type="qcurve"/>
      <point x="534" y="56"/>
      <point x="555" y="56" type="qcurve"/>
      <point x="576" y="56"/>
      <point x="591" y="41" type="qcurve"/>
      <point x="606" y="26"/>
      <point x="606" y="5" type="qcurve"/>
      <point x="606" y="-16"/>
      <point x="591" y="-31" type="qcurve"/>
      <point x="576" y="-46"/>
      <point x="555" y="-46" type="qcurve"/>
      <point x="534" y="-46"/>
      <point x="519" y="-31" type="qcurve"/>
      <point x="504" y="-16"/>
    </contour>
    <contour>
      <point x="78.5" y="430.5" type="qcurve"/>
      <point x="78.5" y="451.5"/>
      <point x="93.5" y="466.5" type="qcurve"/>
      <point x="108.5" y="481.5"/>
      <point x="129.5" y="481.5" type="qcurve"/>
      <point x="150.5" y="481.5"/>
      <point x="165.5" y="466.5" type="qcurve"/>
      <point x="180.5" y="451.5"/>
      <point x="180.5" y="430.5" type="qcurve"/>
      <point x="180.5" y="409.5"/>
      <point x="165.5" y="394.5" type="qcurve"/>
      <point x="150.5" y="379.5"/>
      <point x="129.5" y="379.5" type="qcurve"/>
      <point x="108.5" y="379.5"/>
      <point x="93.5" y="394.5" type="qcurve"/>
      <point x="78.5" y="409.5"/>
    </contour>
    <contour>
      <point x="929.5" y="430.5" type="qcurve"/>
      <point x="929.5" y="451.5"/>
      <point x="944.5" y="466.5" type="qcurve"/>
      <point x="959.5" y="481.5"/>
      <point x="980.5" y="481.5" type="qcurve"/>
      <point x="1001.5" y="481.5"/>
      <point x="1016.5" y="466.5" type="qcurve"/>
      <point x="1031.5" y="451.5"/>
      <point x="1031.5" y="430.5" type="qcurve"/>
      <point x="1031.5" y="409.5"/>
      <point x="1016.5" y="394.5" type="qcurve"/>
      <point x="1001.5" y="379.5"/>
      <point x="980.5" y="379.5" type="qcurve"/>
      <point x="959.5" y="379.5"/>
      <point x="944.5" y="394.5" type="qcurve"/>
      <point x="929.5" y="409.5"/>
    </contour>
    <contour>
      <point x="203.215" y="731.374" type="qcurve"/>
      <point x="203.215" y="752.587"/>
      <point x="218.064" y="767.436" type="qcurve"/>
      <point x="232.913" y="782.285"/>
      <point x="254.126" y="782.285" type="qcurve"/>
      <point x="275.339" y="782.285"/>
      <point x="290.188" y="767.436" type="qcurve"/>
      <point x="305.038" y="752.587"/>
      <point x="305.038" y="731.374" type="qcurve"/>
      <point x="305.038" y="710.161"/>
      <point x="290.188" y="695.312" type="qcurve"/>
      <point x="275.339" y="680.462"/>
      <point x="254.126" y="680.462" type="qcurve"/>
      <point x="232.913" y="680.462"/>
      <point x="218.064" y="695.312" type="qcurve"/>
      <point x="203.215" y="710.161"/>
    </contour>
    <contour>
      <point x="804.962" y="129.626" type="qcurve"/>
      <point x="804.962" y="150.839"/>
      <point x="819.812" y="165.688" type="qcurve"/>
      <point x="834.661" y="180.538"/>
      <point x="855.874" y="180.538" type="qcurve"/>
      <point x="877.087" y="180.538"/>
      <point x="891.936" y="165.688" type="qcurve"/>
      <point x="906.785" y="150.839"/>
      <point x="906.785" y="129.626" type="qcurve"/>
      <point x="906.785" y="108.413"/>
      <point x="891.936" y="93.564" type="qcurve"/>
      <point x="877.087" y="78.7148"/>
      <point x="855.874" y="78.7148" type="qcurve"/>
      <point x="834.661" y="78.7148"/>
      <point x="819.812" y="93.564" type="qcurve"/>
      <point x="804.962" y="108.413"/>
    </contour>
    <contour>
      <point x="203.215" y="129.626" type="qcurve"/>
      <point x="203.215" y="150.839"/>
      <point x="218.064" y="165.688" type="qcurve"/>
      <point x="232.913" y="180.538"/>
      <point x="254.126" y="180.538" type="qcurve"/>
      <point x="275.339" y="180.538"/>
      <point x="290.188" y="165.688" type="qcurve"/>
      <point x="305.038" y="150.839"/>
      <point x="305.038" y="129.626" type="qcurve"/>
      <point x="305.038" y="108.413"/>
      <point x="290.188" y="93.564" type="qcurve"/>
      <point x="275.339" y="78.7148"/>
      <point x="254.126" y="78.7148" type="qcurve"/>
      <point x="232.913" y="78.7148"/>
      <point x="218.064" y="93.564" type="qcurve"/>
      <point x="203.215" y="108.413"/>
    </contour>
    <contour>
      <point x="804.962" y="731.374" type="qcurve"/>
      <point x="804.962" y="752.587"/>
      <point x="819.812" y="767.436" type="qcurve"/>
      <point x="834.661" y="782.285"/>
      <point x="855.874" y="782.285" type="qcurve"/>
      <point x="877.087" y="782.285"/>
      <point x="891.936" y="767.436" type="qcurve"/>
      <point x="906.785" y="752.587"/>
      <point x="906.785" y="731.374" type="qcurve"/>
      <point x="906.785" y="710.161"/>
      <point x="891.936" y="695.312" type="qcurve"/>
      <point x="877.087" y="680.462"/>
      <point x="855.874" y="680.462" type="qcurve"/>
      <point x="834.661" y="680.462"/>
      <point x="819.812" y="695.312" type="qcurve"/>
      <point x="804.962" y="710.161"/>
    </contour>
    <contour>
      <point x="341" y="824" type="qcurve"/>
      <point x="341" y="845"/>
      <point x="356" y="860" type="qcurve"/>
      <point x="371" y="875"/>
      <point x="392" y="875" type="qcurve"/>
      <point x="413" y="875"/>
      <point x="428" y="860" type="qcurve"/>
      <point x="443" y="845"/>
      <point x="443" y="824" type="qcurve"/>
      <point x="443" y="803"/>
      <point x="428" y="788" type="qcurve"/>
      <point x="413" y="773"/>
      <point x="392" y="773" type="qcurve"/>
      <point x="371" y="773"/>
      <point x="356" y="788" type="qcurve"/>
      <point x="341" y="803"/>
    </contour>
    <contour>
      <point x="667" y="37" type="qcurve"/>
      <point x="667" y="58"/>
      <point x="682" y="73" type="qcurve"/>
      <point x="697" y="88"/>
      <point x="718" y="88" type="qcurve"/>
      <point x="739" y="88"/>
      <point x="754" y="73" type="qcurve"/>
      <point x="769" y="58"/>
      <point x="769" y="37" type="qcurve"/>
      <point x="769" y="16"/>
      <point x="754" y="1" type="qcurve"/>
      <point x="739" y="-14"/>
      <point x="718" y="-14" type="qcurve"/>
      <point x="697" y="-14"/>
      <point x="682" y="1" type="qcurve"/>
      <point x="667" y="16"/>
    </contour>
    <contour>
      <point x="111" y="268" type="qcurve"/>
      <point x="111" y="289"/>
      <point x="126" y="304" type="qcurve"/>
      <point x="141" y="319"/>
      <point x="162" y="319" type="qcurve"/>
      <point x="183" y="319"/>
      <point x="198" y="304" type="qcurve"/>
      <point x="213" y="289"/>
      <point x="213" y="268" type="qcurve"/>
      <point x="213" y="247"/>
      <point x="198" y="232" type="qcurve"/>
      <point x="183" y="217"/>
      <point x="162" y="217" type="qcurve"/>
      <point x="141" y="217"/>
      <point x="126" y="232" type="qcurve"/>
      <point x="111" y="247"/>
    </contour>
    <contour>
      <point x="897" y="593" type="qcurve"/>
      <point x="897" y="614"/>
      <point x="912" y="629" type="qcurve"/>
      <point x="927" y="644"/>
      <point x="948" y="644" type="qcurve"/>
      <point x="969" y="644"/>
      <point x="984" y="629" type="qcurve"/>
      <point x="999" y="614"/>
      <point x="999" y="593" type="qcurve"/>
      <point x="999" y="572"/>
      <point x="984" y="557" type="qcurve"/>
      <point x="969" y="542"/>
      <point x="948" y="542" type="qcurve"/>
      <point x="927" y="542"/>
      <point x="912" y="557" type="qcurve"/>
      <point x="897" y="572"/>
    </contour>
    <contour>
      <point x="111" y="593.5" type="qcurve"/>
      <point x="111" y="615"/>
      <point x="126" y="629.5" type="qcurve"/>
      <point x="141" y="644"/>
      <point x="162" y="644" type="qcurve"/>
      <point x="183" y="644"/>
      <point x="198" y="629.5" type="qcurve"/>
      <point x="213" y="615"/>
      <point x="213" y="593.5" type="qcurve"/>
      <point x="213" y="572"/>
      <point x="198" y="557" type="qcurve"/>
      <point x="183" y="542"/>
      <point x="162" y="542" type="qcurve"/>
      <point x="141" y="542"/>
      <point x="126" y="557" type="qcurve"/>
      <point x="111" y="572"/>
    </contour>
    <contour>
      <point x="897" y="267.5" type="qcurve"/>
      <point x="897" y="289"/>
      <point x="912" y="304" type="qcurve"/>
      <point x="927" y="319"/>
      <point x="948" y="319" type="qcurve"/>
      <point x="969" y="319"/>
      <point x="984" y="304" type="qcurve"/>
      <point x="999" y="289"/>
      <point x="999" y="267.5" type="qcurve"/>
      <point x="999" y="246"/>
      <point x="984" y="231.5" type="qcurve"/>
      <point x="969" y="217"/>
      <point x="948" y="217" type="qcurve"/>
      <point x="927" y="217"/>
      <point x="912" y="231.5" type="qcurve"/>
      <point x="897" y="246"/>
    </contour>
    <contour>
      <point x="341" y="37.5" type="qcurve"/>
      <point x="341" y="59"/>
      <point x="356" y="73.5" type="qcurve"/>
      <point x="371" y="88"/>
      <point x="392" y="88" type="qcurve"/>
      <point x="413" y="88"/>
      <point x="428" y="73.5" type="qcurve"/>
      <point x="443" y="59"/>
      <point x="443" y="37.5" type="qcurve"/>
      <point x="443" y="16"/>
      <point x="428" y="1" type="qcurve"/>
      <point x="413" y="-14"/>
      <point x="392" y="-14" type="qcurve"/>
      <point x="371" y="-14"/>
      <point x="356" y="1" type="qcurve"/>
      <point x="341" y="16"/>
    </contour>
    <contour>
      <point x="667" y="823.5" type="qcurve"/>
      <point x="667" y="845"/>
      <point x="682" y="860" type="qcurve"/>
      <point x="697" y="875"/>
      <point x="718" y="875" type="qcurve"/>
      <point x="739" y="875"/>
      <point x="754" y="860" type="qcurve"/>
      <point x="769" y="845"/>
      <point x="769" y="823.5" type="qcurve"/>
      <point x="769" y="802"/>
      <point x="754" y="787.5" type="qcurve"/>
      <point x="739" y="773"/>
      <point x="718" y="773" type="qcurve"/>
      <point x="697" y="773"/>
      <point x="682" y="787.5" type="qcurve"/>
      <point x="667" y="802"/>
    </contour>
  </outline>
</glyph>
<glyph name="uni2C73" format="2">
  <advance width="1507"/>
  <unicode hex="2C73"/>
  <outline>
    <contour>
      <point x="146" y="90" type="qcurve"/>
      <point x="146" y="120"/>
      <point x="152" y="141" type="qcurve"/>
      <point x="289" y="625" type="line"/>
      <point x="295" y="646"/>
      <point x="295" y="662" type="qcurve"/>
      <point x="294" y="711"/>
      <point x="264" y="711" type="qcurve"/>
      <point x="242" y="711"/>
      <point x="156" y="625" type="qcurve"/>
      <point x="153" y="622"/>
      <point x="146.5" y="622" type="qcurve"/>
      <point x="140" y="622"/>
      <point x="126.5" y="636" type="qcurve"/>
      <point x="113" y="650"/>
      <point x="113" y="656" type="qcurve"/>
      <point x="113" y="660"/>
      <point x="115" y="662" type="qcurve"/>
      <point x="269" y="852"/>
      <point x="385" y="852" type="qcurve"/>
      <point x="440" y="852"/>
      <point x="440" y="768" type="qcurve"/>
      <point x="440" y="723"/>
      <point x="412" y="625" type="qcurve"/>
      <point x="293" y="207" type="line"/>
      <point x="283" y="172"/>
      <point x="283" y="147" type="qcurve"/>
      <point x="283" y="76"/>
      <point x="364" y="76" type="qcurve"/>
      <point x="412" y="76"/>
      <point x="466" y="122" type="qcurve"/>
      <point x="520" y="168"/>
      <point x="562" y="222" type="qcurve"/>
      <point x="604" y="276"/>
      <point x="630" y="369" type="qcurve"/>
      <point x="756" y="817" type="line"/>
      <point x="766" y="852"/>
      <point x="822" y="852" type="qcurve"/>
      <point x="878" y="852"/>
      <point x="878" y="826" type="qcurve"/>
      <point x="878" y="821"/>
      <point x="877" y="817" type="qcurve"/>
      <point x="709" y="207" type="line"/>
      <point x="699" y="171"/>
      <point x="699" y="147" type="qcurve"/>
      <point x="700" y="76"/>
      <point x="778" y="76" type="qcurve"/>
      <point x="854" y="76"/>
      <point x="948" y="225.5" type="qcurve"/>
      <point x="1042" y="375"/>
      <point x="1067" y="554" type="qcurve"/>
      <point x="1092" y="732"/>
      <point x="1148" y="792" type="qcurve"/>
      <point x="1202" y="852"/>
      <point x="1300" y="852" type="qcurve"/>
      <point x="1374" y="852"/>
      <point x="1427" y="804" type="qcurve"/>
      <point x="1480" y="756"/>
      <point x="1480" y="686" type="qcurve"/>
      <point x="1480" y="580"/>
      <point x="1414" y="580" type="qcurve"/>
      <point x="1374" y="580"/>
      <point x="1352" y="597" type="qcurve"/>
      <point x="1330" y="614"/>
      <point x="1330" y="662" type="qcurve"/>
      <point x="1330" y="753"/>
      <point x="1270" y="753" type="qcurve"/>
      <point x="1222" y="753"/>
      <point x="1189" y="592" type="qcurve"/>
      <point x="1156" y="431"/>
      <point x="1071" y="269.5" type="qcurve"/>
      <point x="986" y="108"/>
      <point x="886" y="40.5" type="qcurve"/>
      <point x="786" y="-27"/>
      <point x="672" y="-27" type="qcurve"/>
      <point x="562" y="-27"/>
      <point x="562" y="97" type="qcurve"/>
      <point x="562" y="107"/>
      <point x="564" y="125" type="qcurve"/>
      <point x="400" y="-27"/>
      <point x="258" y="-27" type="qcurve"/>
      <point x="201" y="-27"/>
      <point x="173.5" y="11" type="qcurve"/>
      <point x="146" y="49"/>
    </contour>
  </outline>
</glyph>
<glyph name="uni2E40" format="1">
  <advance width="827"/>
  <unicode hex="2E40"/>
  <outline>
    <contour>
      <point x="761" y="596" type="qcurve" smooth="yes"/>
      <point x="188" y="596" type="line" smooth="yes"/>
      <point x="182" y="596"/>
      <point x="182" y="634"/>
      <point x="210" y="710"/>
      <point x="221" y="710" type="qcurve" smooth="yes"/>
      <point x="794" y="710" type="line" smooth="yes"/>
      <point x="800" y="710"/>
      <point x="800" y="668"/>
      <point x="770" y="596"/>
    </contour>
    <contour>
      <point x="692" y="376" type="qcurve" smooth="yes"/>
      <point x="119" y="376" type="line" smooth="yes"/>
      <point x="113" y="376"/>
      <point x="113" y="414"/>
      <point x="141" y="492"/>
      <point x="152" y="492" type="qcurve" smooth="yes"/>
      <point x="725" y="492" type="line" smooth="yes"/>
      <point x="731" y="492"/>
      <point x="731" y="448"/>
      <point x="701" y="376"/>
    </contour>
  </outline>
</glyph>
<glyph name="uniA723" format="1">
  <advance width="852"/>
  <unicode hex="A723"/>
  <outline>
    <contour>
      <point x="88.2793" y="-6" type="qcurve" smooth="yes"/>
      <point x="81" y="-6"/>
      <point x="81" y="15.626"/>
      <point x="97" y="58"/>
      <point x="106.631" y="58" type="qcurve" smooth="yes"/>
      <point x="177.631" y="58" type="line" smooth="yes"/>
      <point x="393.246" y="58"/>
      <point x="614.146" y="313.639"/>
      <point x="614.146" y="459.998" type="qcurve" smooth="yes"/>
      <point x="614.146" y="671.633"/>
      <point x="287.567" y="689" type="qcurve" smooth="yes"/>
      <point x="281" y="689"/>
      <point x="281" y="707"/>
      <point x="296" y="754"/>
      <point x="306.206" y="754" type="qcurve" smooth="yes"/>
      <point x="514.974" y="762.384"/>
      <point x="719" y="982"/>
      <point x="719" y="1113" type="qcurve" smooth="yes"/>
      <point x="719" y="1279"/>
      <point x="461.335" y="1295" type="qcurve" smooth="yes"/>
      <point x="454" y="1295"/>
      <point x="454" y="1313"/>
      <point x="469" y="1357"/>
      <point x="479.113" y="1357" type="qcurve"/>
      <point x="518.4" y="1358"/>
      <point x="564.4" y="1358" type="qcurve" smooth="yes"/>
      <point x="723.852" y="1358"/>
      <point x="894.011" y="1230.94"/>
      <point x="894.011" y="1132.52" type="qcurve" smooth="yes"/>
      <point x="894.011" y="1009.93"/>
      <point x="739.177" y="802.18"/>
      <point x="599.625" y="745" type="qcurve" smooth="yes"/>
      <point x="564.194" y="730.417"/>
      <point x="592.457" y="720" type="qcurve" smooth="yes"/>
      <point x="679.71" y="688.827"/>
      <point x="792.348" y="545.37"/>
      <point x="792.348" y="473.434" type="qcurve" smooth="yes"/>
      <point x="792.348" y="267.56"/>
      <point x="636.021" y="130.28" type="qcurve" smooth="yes"/>
      <point x="480" y="-7"/>
      <point x="173" y="-7" type="qcurve" smooth="yes"/>
      <point x="133" y="-7"/>
    </contour>
  </outline>
</glyph>
<glyph name="uniF129" format="1">
  <advance width="879"/>
  <unicode hex="F129"/>
  <outline>
    <contour>
      <point x="768" y="285" type="qcurve"/>
      <point x="629" y="87"/>
      <point x="538.5" y="30" type="qcurve"/>
      <point x="448" y="-27"/>
      <point x="350" y="-27" type="qcurve"/>
      <point x="252" y="-27"/>
      <point x="192.5" y="50" type="qcurve"/>
      <point x="133" y="127"/>
      <point x="133" y="251" type="qcurve"/>
      <point x="133" y="375"/>
      <point x="218" y="524" type="qcurve"/>
      <point x="303" y="673"/>
      <point x="440" y="750" type="qcurve"/>
      <point x="117" y="750" type="line"/>
      <point x="107" y="750"/>
      <point x="107" y="763" type="qcurve"/>
      <point x="107" y="776"/>
      <point x="158.5" y="840.5" type="qcurve"/>
      <point x="210" y="905"/>
      <point x="223" y="926" type="qcurve"/>
      <point x="229" y="934"/>
      <point x="252" y="934" type="qcurve"/>
      <point x="275" y="934"/>
      <point x="276" y="919" type="qcurve"/>
      <point x="254" y="873"/>
      <point x="254" y="851" type="qcurve"/>
      <point x="254" y="829"/>
      <point x="287" y="829" type="qcurve"/>
      <point x="555" y="829" type="line"/>
      <point x="732" y="829"/>
      <point x="934" y="846" type="qcurve"/>
      <point x="949" y="844"/>
      <point x="949" y="821.5" type="qcurve"/>
      <point x="949" y="799"/>
      <point x="937.5" y="774.5" type="qcurve"/>
      <point x="926" y="750"/>
      <point x="911" y="750" type="qcurve"/>
      <point x="520" y="750" type="line"/>
      <point x="425" y="675"/>
      <point x="350" y="545" type="qcurve"/>
      <point x="275" y="415"/>
      <point x="275" y="316" type="qcurve"/>
      <point x="275" y="215"/>
      <point x="317.5" y="152.5" type="qcurve"/>
      <point x="360" y="90"/>
      <point x="440" y="90" type="qcurve"/>
      <point x="556" y="90"/>
      <point x="723" y="309" type="qcurve"/>
      <point x="728" y="315"/>
      <point x="735" y="315" type="qcurve"/>
      <point x="770" y="315"/>
      <point x="770" y="290" type="qcurve"/>
      <point x="770" y="287"/>
    </contour>
  </outline>
</glyph>
<glyph name="uniF7F4" format="1">
  <advance width="1061"/>
  <unicode hex="F7F4"/>
  <outline>
    <contour>
      <point x="-309" y="1141" type="move" smooth="yes"/>
    </contour>
    <component base="uni0302.sc" xOffset="1072"/>
    <component base="o.sc"/>
  </outline>
</glyph>
<glyph name="CapAcute.comb" format="1">
  <advance width="0"/>
  <outline>
    <contour>
      <point x="-480" y="1415" type="move" name="_above"/>
    </contour>
    <contour>
      <point x="-115.191" y="1656.7" type="qcurve" smooth="yes"/>
      <point x="-479.801" y="1488.85" type="line" smooth="yes"/>
      <point x="-498.721" y="1480.14"/>
      <point x="-515.092" y="1480.14" type="qcurve" smooth="yes"/>
      <point x="-528.667" y="1480.14"/>
      <point x="-552.465" y="1493.51"/>
      <point x="-552.465" y="1503.25" type="qcurve" smooth="yes"/>
      <point x="-552.465" y="1512.06"/>
      <point x="-544.205" y="1522.64" type="qcurve" smooth="yes"/>
      <point x="-535.776" y="1533.43"/>
      <point x="-524.23" y="1540.3" type="qcurve" smooth="yes"/>
      <point x="-169.486" y="1751.45" type="line" smooth="yes"/>
      <point x="-165.186" y="1754.01"/>
      <point x="-159.931" y="1754.01" type="qcurve" smooth="yes"/>
      <point x="-152.496" y="1754.01"/>
      <point x="-125.436" y="1741.2"/>
      <point x="-106.807" y="1686.41"/>
      <point x="-106.807" y="1672.77" type="qcurve" smooth="yes"/>
      <point x="-106.807" y="1667.21"/>
      <point x="-112.459" y="1657.96"/>
    </contour>
  </outline>
</glyph>
<glyph name="acutecomb.sc" format="1">
  <advance width="0"/>
  <outline>
    <contour>
      <point x="-428" y="1036" type="line"/>
      <point x="-449" y="1022"/>
      <point x="-477" y="1022"/>
      <point x="-477" y="1052"/>
      <point x="-458" y="1071" type="qcurve"/>
      <point x="-219" y="1310" type="line"/>
      <point x="-203.444" y="1324"/>
      <point x="-163" y="1324"/>
      <point x="-140" y="1289"/>
      <point x="-140" y="1242.43"/>
      <point x="-156" y="1231" type="qcurve"/>
    </contour>
  </outline>
</glyph>
<glyph name="beta.ipa" format="1">
  <advance width="956"/>
  <outline>
    <contour>
      <point x="208" y="-339" type="qcurve" smooth="yes"/>
      <point x="133" y="-331"/>
      <point x="22" y="-331" type="qcurve" smooth="yes"/>
      <point x="-97" y="-331"/>
      <point x="-181" y="-339" type="qcurve" smooth="yes"/>
      <point x="-193" y="-339"/>
      <point x="-193" y="-324" type="qcurve" smooth="yes"/>
      <point x="-193" y="-290"/>
      <point x="-175" y="-283" type="qcurve" smooth="yes"/>
      <point x="-172" y="-282"/>
      <point x="-169" y="-282" type="qcurve" smooth="yes"/>
      <point x="-52" y="-282"/>
      <point x="-37" y="-204" type="qcurve" smooth="yes"/>
      <point x="170" y="860" type="line" smooth="yes"/>
      <point x="212" y="1076"/>
      <point x="358" y="1207" type="qcurve" smooth="yes"/>
      <point x="500" y="1333"/>
      <point x="692" y="1333" type="qcurve" smooth="yes"/>
      <point x="808" y="1333"/>
      <point x="871" y="1246" type="qcurve" smooth="yes"/>
      <point x="915" y="1186"/>
      <point x="915" y="1106" type="qcurve" smooth="yes"/>
      <point x="915" y="904"/>
      <point x="674" y="782" type="qcurve" smooth="yes"/>
      <point x="637" y="764"/>
      <point x="637" y="755" type="qcurve" smooth="yes"/>
      <point x="637" y="748"/>
      <point x="662" y="741" type="qcurve" smooth="yes"/>
      <point x="862" y="699"/>
      <point x="862" y="506" type="qcurve" smooth="yes"/>
      <point x="862" y="315"/>
      <point x="727" y="165" type="qcurve" smooth="yes"/>
      <point x="609" y="34"/>
      <point x="441" y="-8" type="qcurve" smooth="yes"/>
      <point x="380" y="-23"/>
      <point x="320" y="-23" type="qcurve" smooth="yes"/>
      <point x="224" y="-23"/>
      <point x="156" y="5" type="qcurve"/>
      <point x="116" y="-204" type="line"/>
      <point x="114" y="-229" type="line" smooth="yes"/>
      <point x="119" y="-282"/>
      <point x="220" y="-282" type="qcurve" smooth="yes"/>
      <point x="229" y="-282"/>
      <point x="229" y="-297" type="qcurve" smooth="yes"/>
      <point x="229" y="-329"/>
      <point x="214" y="-338" type="qcurve" smooth="yes"/>
      <point x="211" y="-339"/>
    </contour>
    <contour>
      <point x="604" y="1227" type="qcurve" smooth="yes"/>
      <point x="517" y="1227"/>
      <point x="438" y="1160" type="qcurve" smooth="yes"/>
      <point x="369" y="1101"/>
      <point x="355" y="1026" type="qcurve" smooth="yes"/>
      <point x="179" y="120" type="line"/>
      <point x="223" y="55"/>
      <point x="375" y="53" type="qcurve" smooth="yes"/>
      <point x="381" y="53"/>
      <point x="388" y="53" type="qcurve" smooth="yes"/>
      <point x="492" y="53"/>
      <point x="579" y="162" type="qcurve" smooth="yes"/>
      <point x="664" y="268"/>
      <point x="681" y="405" type="qcurve" smooth="yes"/>
      <point x="684" y="430"/>
      <point x="684" y="455" type="qcurve" smooth="yes"/>
      <point x="684" y="571"/>
      <point x="615" y="642" type="qcurve" smooth="yes"/>
      <point x="566" y="693"/>
      <point x="503" y="693" type="qcurve" smooth="yes"/>
      <point x="441" y="693"/>
      <point x="386" y="677" type="qcurve"/>
      <point x="380" y="678" type="line"/>
      <point x="377" y="681"/>
      <point x="377" y="693" type="qcurve" smooth="yes"/>
      <point x="377" y="703"/>
      <point x="380" y="718" type="qcurve" smooth="yes"/>
      <point x="388" y="757"/>
      <point x="402" y="757" type="qcurve" smooth="yes"/>
      <point x="551" y="757"/>
      <point x="655" y="849" type="qcurve" smooth="yes"/>
      <point x="756" y="939"/>
      <point x="757" y="1070" type="qcurve" smooth="yes"/>
      <point x="757" y="1163"/>
      <point x="689" y="1204" type="qcurve" smooth="yes"/>
      <point x="661" y="1218" type="line" smooth="yes"/>
      <point x="635" y="1227"/>
    </contour>
  </outline>
</glyph>
<glyph name="chi.alt" format="1">
  <advance width="1124"/>
  <outline>
    <contour>
      <point x="1078" y="856" type="line"/>
      <point x="580" y="149" type="line"/>
      <point x="597" y="-126" type="line" smooth="yes"/>
      <point x="606" y="-280"/>
      <point x="629" y="-332" type="qcurve" smooth="yes"/>
      <point x="657" y="-396"/>
      <point x="724" y="-396" type="qcurve" smooth="yes"/>
      <point x="830" y="-396"/>
      <point x="889" y="-265" type="qcurve" smooth="yes"/>
      <point x="905" y="-230"/>
      <point x="921" y="-179" type="qcurve" smooth="yes"/>
      <point x="923" y="-173"/>
      <point x="945" y="-173" type="qcurve" smooth="yes"/>
      <point x="975" y="-173"/>
      <point x="977" y="-182" type="qcurve"/>
      <point x="960" y="-302"/>
      <point x="899" y="-383" type="qcurve" smooth="yes"/>
      <point x="879" y="-409"/>
      <point x="851" y="-439" type="qcurve" smooth="yes"/>
      <point x="791" y="-502"/>
      <point x="709" y="-502" type="qcurve" smooth="yes"/>
      <point x="552" y="-502"/>
      <point x="532" y="-262" type="qcurve" smooth="yes"/>
      <point x="531" y="-249"/>
      <point x="530" y="-225" type="qcurve" smooth="yes"/>
      <point x="516" y="60" type="line"/>
      <point x="132" y="-483" type="line"/>
      <point x="-25" y="-483" type="line"/>
      <point x="505" y="271" type="line"/>
      <point x="488" y="566" type="line" smooth="yes"/>
      <point x="481" y="681"/>
      <point x="459" y="720" type="qcurve" smooth="yes"/>
      <point x="433" y="766"/>
      <point x="376" y="766" type="qcurve" smooth="yes"/>
      <point x="289" y="766"/>
      <point x="237" y="656" type="qcurve" smooth="yes"/>
      <point x="211" y="592" type="line" smooth="yes"/>
      <point x="205" y="573"/>
      <point x="196" y="546" type="qcurve" smooth="yes"/>
      <point x="194" y="540"/>
      <point x="173" y="540" type="qcurve" smooth="yes"/>
      <point x="158" y="540"/>
      <point x="148" y="543" type="qcurve" smooth="yes"/>
      <point x="142" y="545"/>
      <point x="141" y="549" type="qcurve"/>
      <point x="177" y="722"/>
      <point x="262" y="809" type="qcurve" smooth="yes"/>
      <point x="323" y="870"/>
      <point x="400" y="870" type="qcurve" smooth="yes"/>
      <point x="530" y="870"/>
      <point x="550" y="710" type="qcurve" smooth="yes"/>
      <point x="553" y="665" type="line"/>
      <point x="568" y="361" type="line"/>
      <point x="917" y="856" type="line"/>
    </contour>
  </outline>
</glyph>
<glyph name="gamma.alt" format="1">
  <advance width="723"/>
  <outline>
    <contour>
      <point x="347.003" y="580" type="qcurve"/>
      <point x="347.003" y="772"/>
      <point x="251.003" y="772" type="qcurve"/>
      <point x="145.003" y="772"/>
      <point x="87.0029" y="608" type="qcurve"/>
      <point x="84.0029" y="596"/>
      <point x="62.0029" y="596" type="qcurve"/>
      <point x="38.0029" y="596"/>
      <point x="41.0029" y="608" type="qcurve"/>
      <point x="77.0029" y="766"/>
      <point x="171.003" y="835" type="qcurve"/>
      <point x="224.003" y="874"/>
      <point x="286.003" y="874" type="qcurve"/>
      <point x="376.003" y="874"/>
      <point x="416.003" y="800" type="qcurve"/>
      <point x="438.003" y="760"/>
      <point x="438.003" y="685.5" type="qcurve"/>
      <point x="438.003" y="611"/>
      <point x="420.003" y="445" type="qcurve"/>
      <point x="396.003" y="214"/>
      <point x="393.003" y="195" type="qcurve"/>
      <point x="517.003" y="420" type="line"/>
      <point x="677.003" y="720"/>
      <point x="715.003" y="844" type="qcurve"/>
      <point x="721.003" y="867"/>
      <point x="772.003" y="867" type="qcurve"/>
      <point x="823.003" y="867"/>
      <point x="823.003" y="850" type="qcurve"/>
      <point x="734.003" y="618"/>
      <point x="415.003" y="123" type="qcurve"/>
      <point x="374.003" y="61" type="line"/>
      <point x="314.003" y="-430"/>
      <point x="175.003" y="-430" type="qcurve"/>
      <point x="122.003" y="-430"/>
      <point x="122.003" y="-369" type="qcurve"/>
      <point x="122.003" y="-280"/>
      <point x="247.003" y="-62" type="qcurve"/>
      <point x="316.003" y="59" type="line"/>
      <point x="335.003" y="293"/>
      <point x="338.003" y="379" type="qcurve"/>
      <point x="347.003" y="574" type="line"/>
      <point x="347.003" y="577"/>
    </contour>
  </outline>
</glyph>
<glyph name="gravecomb.sc" format="1">
  <advance width="0"/>
  <outline>
    <contour>
      <point x="-211" y="1036" type="qcurve"/>
      <point x="-371.082" y="1231" type="line"/>
      <point x="-375" y="1235"/>
      <point x="-375" y="1242" type="qcurve"/>
      <point x="-375" y="1270"/>
      <point x="-332.576" y="1306" type="qcurve"/>
      <point x="-311" y="1324"/>
      <point x="-270.304" y="1324"/>
      <point x="-263.429" y="1310" type="qcurve"/>
      <point x="-161" y="1071" type="line"/>
      <point x="-158" y="1063"/>
      <point x="-158" y="1041"/>
      <point x="-174" y="1021"/>
      <point x="-198" y="1021"/>
    </contour>
  </outline>
</glyph>
<glyph name="omega.ipa" format="1">
  <advance width="1170"/>
  <outline>
    <contour>
      <point x="78" y="221" type="qcurve"/>
      <point x="78" y="361"/>
      <point x="145" y="509.5" type="qcurve"/>
      <point x="212" y="658"/>
      <point x="295.5" y="755" type="qcurve"/>
      <point x="379" y="852"/>
      <point x="448" y="852" type="qcurve"/>
      <point x="502" y="852"/>
      <point x="529" y="832" type="qcurve"/>
      <point x="556" y="812"/>
      <point x="556" y="780.5" type="qcurve"/>
      <point x="556" y="749"/>
      <point x="482" y="694.5" type="qcurve"/>
      <point x="408" y="640"/>
      <point x="333.5" y="558" type="qcurve"/>
      <point x="259" y="476"/>
      <point x="202.5" y="375" type="qcurve"/>
      <point x="146" y="274"/>
      <point x="146" y="201" type="qcurve"/>
      <point x="146" y="161"/>
      <point x="171" y="133.5" type="qcurve"/>
      <point x="196" y="106"/>
      <point x="255" y="106" type="qcurve"/>
      <point x="343" y="106"/>
      <point x="409.5" y="186" type="qcurve"/>
      <point x="476" y="266"/>
      <point x="520.5" y="378.5" type="qcurve"/>
      <point x="565" y="491"/>
      <point x="577" y="525" type="qcurve"/>
      <point x="599" y="594"/>
      <point x="660" y="594" type="qcurve"/>
      <point x="675" y="594"/>
      <point x="698.5" y="589" type="qcurve"/>
      <point x="722" y="584"/>
      <point x="741.5" y="569" type="qcurve"/>
      <point x="761" y="554"/>
      <point x="761" y="528" type="qcurve"/>
      <point x="761" y="516"/>
      <point x="754" y="493" type="qcurve"/>
      <point x="747" y="470"/>
      <point x="681.5" y="340" type="qcurve"/>
      <point x="616" y="210"/>
      <point x="558" y="145" type="qcurve"/>
      <point x="582" y="106"/>
      <point x="651" y="106" type="qcurve"/>
      <point x="720" y="106"/>
      <point x="796" y="182.5" type="qcurve"/>
      <point x="872" y="259"/>
      <point x="917" y="354.5" type="qcurve"/>
      <point x="962" y="450"/>
      <point x="962" y="555.5" type="qcurve"/>
      <point x="962" y="661"/>
      <point x="947" y="722" type="qcurve"/>
      <point x="932" y="783"/>
      <point x="932" y="798" type="qcurve"/>
      <point x="932" y="842"/>
      <point x="971" y="842" type="qcurve"/>
      <point x="995" y="842"/>
      <point x="1051" y="746" type="qcurve"/>
      <point x="1107" y="650"/>
      <point x="1107" y="510" type="qcurve"/>
      <point x="1107" y="370"/>
      <point x="1049" y="253.5" type="qcurve"/>
      <point x="991" y="137"/>
      <point x="900" y="57" type="qcurve"/>
      <point x="809" y="-23"/>
      <point x="700" y="-23" type="qcurve"/>
      <point x="625" y="-23"/>
      <point x="572" y="4" type="qcurve"/>
      <point x="519" y="31"/>
      <point x="499" y="74" type="qcurve"/>
      <point x="474" y="35"/>
      <point x="420" y="5.5" type="qcurve"/>
      <point x="366" y="-24"/>
      <point x="304" y="-24" type="qcurve"/>
      <point x="210" y="-24"/>
      <point x="144" y="24.5" type="qcurve"/>
      <point x="78" y="73"/>
    </contour>
  </outline>
</glyph>
<glyph name="phi.math" format="1">
  <advance width="1482"/>
  <outline>
    <contour>
      <point x="1298.6" y="420" type="qcurve"/>
      <point x="1322.34" y="522.859"/>
      <point x="1322.34" y="596.968" type="qcurve"/>
      <point x="1322.34" y="788"/>
      <point x="1164.56" y="788" type="qcurve"/>
      <point x="1080.56" y="788"/>
      <point x="981.469" y="688" type="qcurve"/>
      <point x="955.467" y="662"/>
      <point x="939.768" y="594" type="qcurve"/>
      <point x="849.96" y="205" type="line"/>
      <point x="844.033" y="179.326"/>
      <point x="844.033" y="157.672" type="qcurve"/>
      <point x="844.033" y="41"/>
      <point x="1016.1" y="41" type="qcurve"/>
      <point x="1102.1" y="41"/>
      <point x="1191.88" y="170" type="qcurve"/>
      <point x="1266.51" y="281"/>
    </contour>
    <contour>
      <point x="663.407" y="64" type="line"/>
      <point x="526.491" y="-20.4033"/>
      <point x="362.322" y="-23" type="qcurve"/>
      <point x="221.632" y="-23"/>
      <point x="148.391" y="75.1084" type="qcurve"/>
      <point x="80.6318" y="160"/>
      <point x="80.46" y="277.41" type="qcurve"/>
      <point x="80.46" y="328.449"/>
      <point x="93.5156" y="385" type="qcurve"/>
      <point x="138.767" y="581"/>
      <point x="290.088" y="721" type="qcurve"/>
      <point x="449.487" y="870"/>
      <point x="631.487" y="870" type="qcurve"/>
      <point x="727.487" y="870"/>
      <point x="783.175" y="821" type="qcurve"/>
      <point x="794.866" y="811"/>
      <point x="800.558" y="801" type="qcurve"/>
      <point x="802.479" y="797"/>
      <point x="800.479" y="792" type="qcurve"/>
      <point x="793.862" y="772"/>
      <point x="770.168" y="756" type="qcurve"/>
      <point x="762.014" y="751"/>
      <point x="757.014" y="751" type="qcurve"/>
      <point x="753.014" y="751"/>
      <point x="750.476" y="753" type="qcurve"/>
      <point x="695.019" y="803"/>
      <point x="598.019" y="803" type="qcurve"/>
      <point x="509.019" y="803"/>
      <point x="413.855" y="707" type="qcurve"/>
      <point x="304.691" y="598"/>
      <point x="267.29" y="436" type="qcurve"/>
      <point x="255.79" y="386.188"/>
      <point x="255.79" y="341.531" type="qcurve"/>
      <point x="255.79" y="246"/>
      <point x="311.601" y="169.959" type="qcurve"/>
      <point x="370.632" y="90"/>
      <point x="471.41" y="90" type="qcurve"/>
      <point x="566.41" y="90"/>
      <point x="682.107" y="145" type="qcurve"/>
      <point x="760.372" y="484" type="line"/>
      <point x="802.852" y="668"/>
      <point x="956.247" y="778" type="qcurve"/>
      <point x="1087.79" y="867"/>
      <point x="1224.49" y="870" type="qcurve"/>
      <point x="1380.49" y="870"/>
      <point x="1454.63" y="758" type="qcurve"/>
      <point x="1502" y="684.198"/>
      <point x="1502" y="592.391" type="qcurve"/>
      <point x="1502" y="547.361"/>
      <point x="1490.6" y="498" type="qcurve"/>
      <point x="1425.5" y="216"/>
      <point x="1290.87" y="92" type="qcurve"/>
      <point x="1167.32" y="-23"/>
      <point x="971.322" y="-23" type="qcurve"/>
      <point x="878.322" y="-23"/>
      <point x="838.708" y="-4" type="qcurve"/>
      <point x="833.17" y="-2"/>
      <point x="828.17" y="-2" type="qcurve"/>
      <point x="802.17" y="-2"/>
      <point x="794.552" y="-35" type="qcurve"/>
      <point x="699.203" y="-448" type="line"/>
      <point x="692.508" y="-477"/>
      <point x="640.929" y="-499" type="qcurve"/>
      <point x="589.35" y="-521"/>
      <point x="561.158" y="-521" type="qcurve"/>
      <point x="532.967" y="-521"/>
      <point x="532.967" y="-501" type="qcurve"/>
    </contour>
  </outline>
</glyph>
<glyph name="pi.math" format="1">
  <advance width="964"/>
  <outline>
    <contour>
      <point x="930" y="98" type="qcurve" smooth="yes"/>
      <point x="885" y="-29"/>
      <point x="725" y="-29" type="qcurve" smooth="yes"/>
      <point x="632" y="-29"/>
      <point x="580" y="74" type="qcurve" smooth="yes"/>
      <point x="541" y="149"/>
      <point x="541" y="293" type="qcurve" smooth="yes"/>
      <point x="541" y="475"/>
      <point x="650" y="708" type="qcurve"/>
      <point x="410" y="708" type="line"/>
      <point x="387" y="446"/>
      <point x="309" y="88" type="qcurve" smooth="yes"/>
      <point x="284" y="-29"/>
      <point x="197" y="-29" type="qcurve" smooth="yes"/>
      <point x="157" y="-29"/>
      <point x="128" y="-4" type="qcurve" smooth="yes"/>
      <point x="100" y="22"/>
      <point x="100" y="59" type="qcurve" smooth="yes"/>
      <point x="100" y="92"/>
      <point x="144" y="151" type="qcurve" smooth="yes"/>
      <point x="192" y="213" type="line" smooth="yes"/>
      <point x="220" y="256"/>
      <point x="232" y="302" type="qcurve" smooth="yes"/>
      <point x="294" y="545"/>
      <point x="303" y="708" type="qcurve"/>
      <point x="200" y="708" type="line" smooth="yes"/>
      <point x="122" y="708"/>
      <point x="84" y="652" type="qcurve" smooth="yes"/>
      <point x="78" y="643"/>
      <point x="66" y="643" type="qcurve" smooth="yes"/>
      <point x="55" y="644" type="line" smooth="yes"/>
      <point x="39" y="648"/>
      <point x="39" y="658" type="qcurve" smooth="yes"/>
      <point x="40" y="664" type="line" smooth="yes"/>
      <point x="63" y="719"/>
      <point x="97" y="768" type="qcurve" smooth="yes"/>
      <point x="155" y="850"/>
      <point x="262" y="850" type="qcurve" smooth="yes"/>
      <point x="901" y="850" type="line" smooth="yes"/>
      <point x="916" y="850"/>
      <point x="916" y="708"/>
      <point x="901" y="708" type="qcurve" smooth="yes"/>
      <point x="736" y="708" type="line"/>
      <point x="694" y="518"/>
      <point x="694" y="291" type="qcurve" smooth="yes"/>
      <point x="694" y="68"/>
      <point x="797" y="68" type="qcurve" smooth="yes"/>
      <point x="856" y="68"/>
      <point x="887" y="117" type="qcurve" smooth="yes"/>
      <point x="892" y="125"/>
      <point x="914" y="125"/>
      <point x="924" y="116" type="qcurve" smooth="yes"/>
      <point x="933" y="107"/>
    </contour>
  </outline>
</glyph>
<glyph name="theta.ipa" format="1">
  <advance width="956"/>
  <outline>
    <contour>
      <point x="884" y="643" type="qcurve" smooth="yes"/>
      <point x="831" y="372"/>
      <point x="697" y="190" type="qcurve" smooth="yes"/>
      <point x="544" y="-16"/>
      <point x="346" y="-16" type="qcurve" smooth="yes"/>
      <point x="118" y="-16"/>
      <point x="61" y="230" type="qcurve" smooth="yes"/>
      <point x="44" y="305"/>
      <point x="44" y="400" type="qcurve" smooth="yes"/>
      <point x="44" y="526"/>
      <point x="72" y="668" type="qcurve" smooth="yes"/>
      <point x="130" y="966"/>
      <point x="272" y="1148" type="qcurve" smooth="yes"/>
      <point x="417" y="1333"/>
      <point x="610" y="1333" type="qcurve" smooth="yes"/>
      <point x="815" y="1333"/>
      <point x="882" y="1114" type="qcurve" smooth="yes"/>
      <point x="897" y="1049" type="line" smooth="yes"/>
      <point x="910" y="979"/>
      <point x="910" y="897" type="qcurve" smooth="yes"/>
      <point x="910" y="780"/>
    </contour>
    <contour>
      <point x="716" y="699" type="line"/>
      <point x="747" y="917"/>
      <point x="749" y="996" type="qcurve" smooth="yes"/>
      <point x="750" y="1012"/>
      <point x="750" y="1027" type="qcurve" smooth="yes"/>
      <point x="750" y="1255"/>
      <point x="616" y="1267" type="qcurve" smooth="yes"/>
      <point x="608" y="1268"/>
      <point x="599" y="1268" type="qcurve" smooth="yes"/>
      <point x="463" y="1268"/>
      <point x="356" y="1038" type="qcurve" smooth="yes"/>
      <point x="288" y="891"/>
      <point x="252" y="699" type="qcurve"/>
    </contour>
    <contour>
      <point x="694" y="584" type="qcurve"/>
      <point x="230" y="584" type="line"/>
      <point x="205" y="475"/>
      <point x="205" y="349" type="qcurve" smooth="yes"/>
      <point x="205" y="114"/>
      <point x="304" y="63" type="qcurve" smooth="yes"/>
      <point x="328" y="51"/>
      <point x="357" y="51" type="qcurve" smooth="yes"/>
      <point x="567" y="51"/>
      <point x="679" y="518" type="qcurve" smooth="yes"/>
      <point x="687" y="550"/>
    </contour>
  </outline>
</glyph>
<glyph name="tildecomb.sc" format="1">
  <advance width="0"/>
  <outline>
    <contour>
      <point x="-711" y="1066" type="qcurve"/>
      <point x="-711" y="1068"/>
      <point x="-709" y="1070" type="qcurve"/>
      <point x="-576" y="1213"/>
      <point x="-467" y="1213" type="qcurve"/>
      <point x="-423" y="1213"/>
      <point x="-339" y="1180" type="qcurve"/>
      <point x="-274" y="1154"/>
      <point x="-241" y="1154" type="qcurve"/>
      <point x="-184" y="1154"/>
      <point x="-96" y="1222" type="qcurve"/>
      <point x="-95" y="1223"/>
      <point x="-93" y="1223" type="qcurve"/>
      <point x="-88" y="1223"/>
      <point x="-80" y="1215" type="qcurve"/>
      <point x="-75" y="1209"/>
      <point x="-75" y="1202" type="qcurve"/>
      <point x="-75" y="1195"/>
      <point x="-79" y="1187" type="qcurve"/>
      <point x="-105" y="1146"/>
      <point x="-192" y="1097" type="qcurve"/>
      <point x="-276" y="1050"/>
      <point x="-322" y="1050" type="qcurve"/>
      <point x="-371" y="1050"/>
      <point x="-449" y="1084" type="qcurve"/>
      <point x="-517" y="1113"/>
      <point x="-557" y="1113" type="qcurve"/>
      <point x="-611" y="1113"/>
      <point x="-690" y="1052" type="qcurve"/>
      <point x="-695" y="1048"/>
      <point x="-699" y="1048" type="qcurve"/>
      <point x="-703" y="1048"/>
      <point x="-706" y="1052" type="qcurve"/>
      <point x="-711" y="1061"/>
    </contour>
  </outline>
</glyph>
<glyph name="uni0302.sc" format="1">
  <advance width="0"/>
  <outline>
    <contour>
      <point x="-643" y="1046" type="qcurve"/>
      <point x="-643" y="1054.23"/>
      <point x="-635.983" y="1061" type="qcurve"/>
      <point x="-387.15" y="1315" type="line"/>
      <point x="-365.554" y="1338"/>
      <point x="-350.554" y="1338" type="qcurve"/>
      <point x="-335.554" y="1338"/>
      <point x="-326.863" y="1316" type="qcurve"/>
      <point x="-223.766" y="1067" type="line"/>
      <point x="-221" y="1060.32"/>
      <point x="-221" y="1059" type="qcurve"/>
      <point x="-221" y="1057"/>
      <point x="-222.134" y="1053.5" type="qcurve"/>
      <point x="-223.711" y="1048"/>
      <point x="-231.148" y="1039.5" type="qcurve"/>
      <point x="-238.585" y="1031"/>
      <point x="-243.585" y="1031" type="qcurve"/>
      <point x="-246" y="1031"/>
      <point x="-247.299" y="1032" type="qcurve"/>
      <point x="-371.573" y="1181" type="line"/>
      <point x="-380.993" y="1190"/>
      <point x="-391.993" y="1190" type="qcurve"/>
      <point x="-403.993" y="1190"/>
      <point x="-418.573" y="1181" type="qcurve"/>
      <point x="-624.872" y="1030" type="line"/>
      <point x="-628.446" y="1028"/>
      <point x="-630.446" y="1028" type="qcurve"/>
      <point x="-637.446" y="1028"/>
      <point x="-640.223" y="1034.5" type="qcurve"/>
      <point x="-643" y="1041"/>
    </contour>
  </outline>
</glyph>
<glyph name="uni0304.sc" format="1">
  <advance width="0"/>
  <outline>
    <contour>
      <point x="-597.477" y="1049" type="line"/>
      <point x="-615" y="1049"/>
      <point x="-615" y="1064.5" type="qcurve"/>
      <point x="-615" y="1080"/>
      <point x="-606" y="1111.5" type="qcurve"/>
      <point x="-597" y="1143"/>
      <point x="-570.523" y="1143" type="qcurve"/>
      <point x="-120.523" y="1143" type="line"/>
      <point x="-103" y="1143"/>
      <point x="-103" y="1127.5" type="qcurve"/>
      <point x="-103" y="1112"/>
      <point x="-112.239" y="1080.5" type="qcurve"/>
      <point x="-121.477" y="1049"/>
      <point x="-151.477" y="1049" type="qcurve"/>
    </contour>
  </outline>
</glyph>
<glyph name="uni0308.sc" format="1">
  <advance width="0"/>
  <outline>
    <contour>
      <point x="-738" y="1138" type="qcurve" smooth="yes"/>
      <point x="-738" y="1194"/>
      <point x="-649" y="1264"/>
      <point x="-568" y="1264"/>
      <point x="-534" y="1216"/>
      <point x="-534" y="1180"/>
      <point x="-550" y="1125"/>
      <point x="-624" y="1068"/>
      <point x="-705" y="1068"/>
      <point x="-738" y="1115"/>
    </contour>
    <contour>
      <point x="-358" y="1138" type="qcurve" smooth="yes"/>
      <point x="-358" y="1194"/>
      <point x="-269" y="1264"/>
      <point x="-187" y="1264"/>
      <point x="-154" y="1217"/>
      <point x="-154" y="1180"/>
      <point x="-170" y="1125"/>
      <point x="-243" y="1068"/>
      <point x="-325" y="1068"/>
      <point x="-358" y="1115"/>
    </contour>
  </outline>
</glyph>
